<svg width="20" height="20" viewBox="0 0 20 20" fill="none" xmlns="http://www.w3.org/2000/svg">
<g id="Group 2243">
<path id="Rectangle 820" d="M0 8C0 4.22876 0 2.34315 1.17157 1.17157C2.34315 0 4.22876 0 8 0H12C15.7712 0 17.6569 0 18.8284 1.17157C20 2.34315 20 4.22876 20 8V12C20 15.7712 20 17.6569 18.8284 18.8284C17.6569 20 15.7712 20 12 20H8C4.22876 20 2.34315 20 1.17157 18.8284C0 17.6569 0 15.7712 0 12V8Z" fill="#00B598"/>
<path id="Vector" d="M15.3399 5.00062C15.1311 5.00737 14.9395 5.10861 14.829 5.2706L8.91342 13.5587L5.08109 10.526C4.9165 10.3697 4.66961 10.3112 4.44237 10.3764C4.21636 10.4405 4.04808 10.616 4.00877 10.8297C3.96947 11.0446 4.06405 11.2606 4.25567 11.3899L8.63828 14.8636C8.77585 14.9704 8.95764 15.0177 9.13574 14.994C9.31508 14.9693 9.47353 14.8759 9.57179 14.7376L15.8902 5.90053C16.0253 5.71942 16.0364 5.48545 15.9197 5.29422C15.803 5.10411 15.5782 4.9905 15.3399 5.00062Z" fill="white"/>
</g>
</svg>
