<svg width="32" height="32" viewBox="0 0 32 32" fill="none" xmlns="http://www.w3.org/2000/svg">
<g clip-path="url(#clip0_1_48020)">
<path d="M8 25.3346C8 26.0419 8.28095 26.7202 8.78105 27.2203C9.28115 27.7204 9.95942 28.0013 10.6667 28.0013C11.3739 28.0013 12.0522 27.7204 12.5523 27.2203C13.0524 26.7202 13.3333 26.0419 13.3333 25.3346C13.3333 24.6274 13.0524 23.9491 12.5523 23.449C12.0522 22.9489 11.3739 22.668 10.6667 22.668C9.95942 22.668 9.28115 22.9489 8.78105 23.449C8.28095 23.9491 8 24.6274 8 25.3346Z" stroke="#6F40DD" stroke-linecap="round" stroke-linejoin="round"/>
<path d="M21.3359 25.3327C21.3359 26.0399 21.6169 26.7182 22.117 27.2183C22.6171 27.7184 23.2954 27.9993 24.0026 27.9993C24.7098 27.9993 25.3881 27.7184 25.8882 27.2183C26.3883 26.7182 26.6693 26.0399 26.6693 25.3327C26.6693 24.6254 26.3883 23.9472 25.8882 23.4471C25.3881 22.947 24.7098 22.666 24.0026 22.666C23.2954 22.666 22.6171 22.947 22.117 23.4471C21.6169 23.9472 21.3359 24.6254 21.3359 25.3327Z" stroke="#6F40DD" stroke-linecap="round" stroke-linejoin="round"/>
<path d="M2.66406 6.66667H5.9974L8.1734 13.196C8.70434 14.7892 9.72318 16.1749 11.0856 17.1568C12.4479 18.1386 14.0847 18.6669 15.7641 18.6667H19.3307C21.2757 18.6667 23.1409 17.8941 24.5162 16.5188C25.8914 15.1435 26.6641 13.2783 26.6641 11.3333C26.6641 9.38841 25.8914 7.52315 24.5162 6.14788C23.1409 4.77262 21.2757 4 19.3307 4H18.6641V12" stroke="#6F40DD" stroke-linecap="round" stroke-linejoin="round"/>
<path d="M8 12H26.6667" stroke="#6F40DD" stroke-linecap="round" stroke-linejoin="round"/>
<path d="M12 22.668L13.3333 18.668" stroke="#6F40DD" stroke-linecap="round" stroke-linejoin="round"/>
<path d="M21.3359 18.666L22.6693 22.666" stroke="#6F40DD" stroke-linecap="round" stroke-linejoin="round"/>
</g>
<defs>
<clipPath id="clip0_1_48020">
<rect width="32" height="32" fill="white"/>
</clipPath>
</defs>
</svg>
