<svg width="32" height="32" viewBox="0 0 32 32" fill="none" xmlns="http://www.w3.org/2000/svg">
<g id="basket 27" clip-path="url(#clip0_1_42094)">
<path id="Vector" d="M9.33203 13.334L15.9987 5.33398L22.6654 13.334" stroke="#00B59F" stroke-width="2" stroke-linecap="round" stroke-linejoin="round"/>
<path id="Vector_2" d="M28 13.334L25.3333 24.0007C25.2087 24.7649 24.8735 25.4503 24.3863 25.9376C23.899 26.4248 23.2905 26.683 22.6667 26.6673H9.33333C8.70948 26.683 8.10096 26.4248 7.61371 25.9376C7.12646 25.4503 6.79134 24.7649 6.66667 24.0007L4 13.334H28Z" fill="#00B598" stroke="#00B598" stroke-linecap="round" stroke-linejoin="round"/>
<path id="Vector_3" d="M13.332 20.0007C13.332 20.7079 13.613 21.3862 14.1131 21.8863C14.6132 22.3864 15.2915 22.6673 15.9987 22.6673C16.7059 22.6673 17.3842 22.3864 17.8843 21.8863C18.3844 21.3862 18.6654 20.7079 18.6654 20.0007C18.6654 19.2934 18.3844 18.6151 17.8843 18.115C17.3842 17.6149 16.7059 17.334 15.9987 17.334C15.2915 17.334 14.6132 17.6149 14.1131 18.115C13.613 18.6151 13.332 19.2934 13.332 20.0007Z" fill="white"/>
</g>
<defs>
<clipPath id="clip0_1_42094">
<rect width="32" height="32" fill="white"/>
</clipPath>
</defs>
</svg>
