<svg width="32" height="32" viewBox="0 0 32 32" fill="none" xmlns="http://www.w3.org/2000/svg">
<path d="M10 13.5L16.25 6L22.5 13.5" stroke="#6F40DD" stroke-linecap="round" stroke-linejoin="round"/>
<path d="M27.5 13.5L25 23.5C24.8831 24.2165 24.5689 24.8591 24.1121 25.3159C23.6553 25.7727 23.0849 26.0147 22.5 26H10C9.41513 26.0147 8.84465 25.7727 8.38786 25.3159C7.93106 24.8591 7.61688 24.2165 7.5 23.5L5 13.5H27.5Z" stroke="#6F40DD" stroke-linecap="round" stroke-linejoin="round"/>
<path d="M13.75 19.75C13.75 20.413 14.0134 21.0489 14.4822 21.5178C14.9511 21.9866 15.587 22.25 16.25 22.25C16.913 22.25 17.5489 21.9866 18.0178 21.5178C18.4866 21.0489 18.75 20.413 18.75 19.75C18.75 19.087 18.4866 18.4511 18.0178 17.9822C17.5489 17.5134 16.913 17.25 16.25 17.25C15.587 17.25 14.9511 17.5134 14.4822 17.9822C14.0134 18.4511 13.75 19.087 13.75 19.75Z" stroke="#6F40DD" stroke-linecap="round" stroke-linejoin="round"/>
</svg>
