<svg width="32" height="33" viewBox="0 0 32 33" fill="none" xmlns="http://www.w3.org/2000/svg">
<g id="basket 28" clip-path="url(#clip0_112_6673)">
<path id="Vector" d="M9.33203 13.834L15.9987 5.83398L22.6654 13.834" stroke="white" stroke-width="2" stroke-linecap="round" stroke-linejoin="round"/>
<path id="Vector_2" d="M28 13.834L25.3333 24.5007C25.2087 25.2649 24.8735 25.9503 24.3863 26.4376C23.899 26.9248 23.2905 27.183 22.6667 27.1673H9.33333C8.70948 27.183 8.10096 26.9248 7.61371 26.4376C7.12646 25.9503 6.79134 25.2649 6.66667 24.5007L4 13.834H28Z" fill="white"/>
<path id="Vector_3" d="M13.332 20.5007C13.332 21.2079 13.613 21.8862 14.1131 22.3863C14.6132 22.8864 15.2915 23.1673 15.9987 23.1673C16.7059 23.1673 17.3842 22.8864 17.8843 22.3863C18.3844 21.8862 18.6654 21.2079 18.6654 20.5007C18.6654 19.7934 18.3844 19.1151 17.8843 18.615C17.3842 18.1149 16.7059 17.834 15.9987 17.834C15.2915 17.834 14.6132 18.1149 14.1131 18.615C13.613 19.1151 13.332 19.7934 13.332 20.5007Z" fill="#00B598"/>
</g>
<defs>
<clipPath id="clip0_112_6673">
<rect width="32" height="32" fill="white" transform="translate(0 0.5)"/>
</clipPath>
</defs>
</svg>
