<svg width="32" height="32" viewBox="0 0 32 32" fill="none" xmlns="http://www.w3.org/2000/svg">
<g clip-path="url(#clip0_1_48035)">
<path d="M4.29233 7.78465C2.54966 7.58465 2.66566 7.01398 2.66566 6.72598C2.66566 6.43798 3.231 5.33398 8.45233 5.33398C14.711 5.33398 27.999 10.194 27.999 18.7233C27.999 27.2526 16.3857 25.298 14.0857 24.75C11.787 24.2007 6.66566 21.742 6.66566 19.1846C6.66566 17.3246 10.7723 16.0007 15.619 16.0007C20.4643 16.0007 22.6657 17.3887 22.6657 18.6673C22.6657 19.334 22.567 20.306 21.3323 20.6673" stroke="#6F40DD" stroke-linecap="round" stroke-linejoin="round"/>
<path d="M13.3604 10.666C13.2861 16.4436 13.2861 22.2218 13.3604 27.9993" stroke="#6F40DD" stroke-linecap="round" stroke-linejoin="round"/>
</g>
<defs>
<clipPath id="clip0_1_48035">
<rect width="32" height="32" fill="white"/>
</clipPath>
</defs>
</svg>
