<svg width="32" height="32" viewBox="0 0 32 32" fill="none" xmlns="http://www.w3.org/2000/svg">
<g id="clipboard-check 1" clip-path="url(#clip0_26_64989)">
<path id="Vector" d="M12 6.6665H9.33335C8.62611 6.6665 7.94783 6.94746 7.44774 7.44755C6.94764 7.94765 6.66669 8.62593 6.66669 9.33317V25.3332C6.66669 26.0404 6.94764 26.7187 7.44774 27.2188C7.94783 27.7189 8.62611 27.9998 9.33335 27.9998H22.6667C23.3739 27.9998 24.0522 27.7189 24.5523 27.2188C25.0524 26.7187 25.3334 26.0404 25.3334 25.3332V9.33317C25.3334 8.62593 25.0524 7.94765 24.5523 7.44755C24.0522 6.94746 23.3739 6.6665 22.6667 6.6665H20" stroke="#6F40DD" stroke-linecap="round" stroke-linejoin="round"/>
<path id="Vector_2" d="M12 6.66667C12 5.95942 12.281 5.28115 12.781 4.78105C13.2811 4.28095 13.9594 4 14.6667 4H17.3333C18.0406 4 18.7189 4.28095 19.219 4.78105C19.719 5.28115 20 5.95942 20 6.66667C20 7.37391 19.719 8.05219 19.219 8.55229C18.7189 9.05238 18.0406 9.33333 17.3333 9.33333H14.6667C13.9594 9.33333 13.2811 9.05238 12.781 8.55229C12.281 8.05219 12 7.37391 12 6.66667Z" stroke="#6F40DD" stroke-linecap="round" stroke-linejoin="round"/>
<path id="Vector_3" d="M12 18.6667L14.6667 21.3333L20 16" stroke="#6F40DD" stroke-linecap="round" stroke-linejoin="round"/>
</g>
<defs>
<clipPath id="clip0_26_64989">
<rect width="32" height="32" fill="white"/>
</clipPath>
</defs>
</svg>
