<svg width="32" height="32" viewBox="0 0 32 32" fill="none" xmlns="http://www.w3.org/2000/svg">
<g clip-path="url(#clip0_1_48234)">
<path d="M25.332 22.6667C25.332 23.3739 25.0511 24.0522 24.551 24.5523C24.0509 25.0524 23.3726 25.3333 22.6654 25.3333C21.9581 25.3333 21.2798 25.0524 20.7797 24.5523C20.2796 24.0522 19.9987 23.3739 19.9987 22.6667C19.9987 21.9594 20.2796 21.2811 20.7797 20.781C21.2798 20.281 21.9581 20 22.6654 20C23.3726 20 24.0509 20.281 24.551 20.781C25.0511 21.2811 25.332 21.9594 25.332 22.6667Z" stroke="#6F40DD" stroke-linecap="round" stroke-linejoin="round"/>
<path d="M12 22.6667C12 23.3739 11.719 24.0522 11.219 24.5523C10.7189 25.0524 10.0406 25.3333 9.33333 25.3333C8.62609 25.3333 7.94781 25.0524 7.44772 24.5523C6.94762 24.0522 6.66667 23.3739 6.66667 22.6667C6.66667 21.9594 6.94762 21.2811 7.44772 20.781C7.94781 20.281 8.62609 20 9.33333 20C10.0406 20 10.7189 20.281 11.219 20.781C11.719 21.2811 12 21.9594 12 22.6667Z" stroke="#6F40DD" stroke-linecap="round" stroke-linejoin="round"/>
<path d="M25.3333 22.6667H28V14.6667M28 14.6667L25.3333 8H13.3333L8 14.6667M28 14.6667H8M8 14.6667H6.66667C5.95942 14.6667 5.28115 14.9476 4.78105 15.4477C4.28095 15.9478 4 16.6261 4 17.3333V22.6667H6.66667M12 22.6667H20M16 14.6667V8" stroke="#6F40DD" stroke-linecap="round" stroke-linejoin="round"/>
</g>
<defs>
<clipPath id="clip0_1_48234">
<rect width="32" height="32" fill="white" transform="matrix(-1 0 0 1 32 0)"/>
</clipPath>
</defs>
</svg>
