<svg width="32" height="32" viewBox="0 0 32 32" fill="none" xmlns="http://www.w3.org/2000/svg">
<g clip-path="url(#clip0_1_48010)">
<path d="M18.6641 5.33398H26.6641V13.334H18.6641V5.33398Z" stroke="#6F40DD" stroke-linecap="round" stroke-linejoin="round"/>
<path d="M5.33594 18.666H13.3359V26.666H5.33594V18.666Z" stroke="#6F40DD" stroke-linecap="round" stroke-linejoin="round"/>
<path d="M18.6641 22.666C18.6641 23.7269 19.0855 24.7443 19.8356 25.4944C20.5858 26.2446 21.6032 26.666 22.6641 26.666C23.7249 26.666 24.7423 26.2446 25.4925 25.4944C26.2426 24.7443 26.6641 23.7269 26.6641 22.666C26.6641 21.6051 26.2426 20.5877 25.4925 19.8376C24.7423 19.0874 23.7249 18.666 22.6641 18.666C21.6032 18.666 20.5858 19.0874 19.8356 19.8376C19.0855 20.5877 18.6641 21.6051 18.6641 22.666Z" stroke="#6F40DD" stroke-linecap="round" stroke-linejoin="round"/>
<path d="M5.33594 9.33398C5.33594 9.85927 5.4394 10.3794 5.64042 10.8647C5.84144 11.35 6.13608 11.791 6.50751 12.1624C6.87894 12.5338 7.3199 12.8285 7.8052 13.0295C8.29051 13.2305 8.81065 13.334 9.33594 13.334C9.86123 13.334 10.3814 13.2305 10.8667 13.0295C11.352 12.8285 11.7929 12.5338 12.1644 12.1624C12.5358 11.791 12.8304 11.35 13.0315 10.8647C13.2325 10.3794 13.3359 9.85927 13.3359 9.33398C13.3359 8.8087 13.2325 8.28855 13.0315 7.80325C12.8304 7.31795 12.5358 6.87699 12.1644 6.50556C11.7929 6.13412 11.352 5.83948 10.8667 5.63847C10.3814 5.43745 9.86123 5.33398 9.33594 5.33398C8.81065 5.33398 8.29051 5.43745 7.8052 5.63847C7.3199 5.83948 6.87894 6.13412 6.50751 6.50556C6.13608 6.87699 5.84144 7.31795 5.64042 7.80325C5.4394 8.28855 5.33594 8.8087 5.33594 9.33398Z" stroke="#6F40DD" stroke-linecap="round" stroke-linejoin="round"/>
</g>
<defs>
<clipPath id="clip0_1_48010">
<rect width="32" height="32" fill="white"/>
</clipPath>
</defs>
</svg>
