<svg width="33" height="32" viewBox="0 0 33 32" fill="none" xmlns="http://www.w3.org/2000/svg">
<g id="category-2 3" clip-path="url(#clip0_22_29727)">
<path id="Vector" d="M19.1667 5.3335H27.1667V13.3335H19.1667V5.3335Z" stroke="white" stroke-width="2" stroke-linecap="round" stroke-linejoin="round"/>
<path id="Vector_2" d="M5.83325 18.6665H13.8333V26.6665H5.83325V18.6665Z" stroke="white" stroke-width="2" stroke-linecap="round" stroke-linejoin="round"/>
<path id="Vector_3" d="M19.1667 22.6665C19.1667 23.7274 19.5882 24.7448 20.3383 25.4949C21.0885 26.2451 22.1059 26.6665 23.1667 26.6665C24.2276 26.6665 25.245 26.2451 25.9952 25.4949C26.7453 24.7448 27.1667 23.7274 27.1667 22.6665C27.1667 21.6056 26.7453 20.5882 25.9952 19.8381C25.245 19.0879 24.2276 18.6665 23.1667 18.6665C22.1059 18.6665 21.0885 19.0879 20.3383 19.8381C19.5882 20.5882 19.1667 21.6056 19.1667 22.6665Z" stroke="#6F40DD" stroke-width="2" stroke-linecap="round" stroke-linejoin="round"/>
<path id="Vector_4" d="M5.83325 9.3335C5.83325 9.85878 5.93672 10.3789 6.13773 10.8642C6.33875 11.3495 6.63339 11.7905 7.00482 12.1619C7.37626 12.5334 7.81722 12.828 8.30252 13.029C8.78782 13.23 9.30796 13.3335 9.83325 13.3335C10.3585 13.3335 10.8787 13.23 11.364 13.029C11.8493 12.828 12.2902 12.5334 12.6617 12.1619C13.0331 11.7905 13.3278 11.3495 13.5288 10.8642C13.7298 10.3789 13.8333 9.85878 13.8333 9.3335C13.8333 8.80821 13.7298 8.28806 13.5288 7.80276C13.3278 7.31746 13.0331 6.8765 12.6617 6.50507C12.2902 6.13363 11.8493 5.839 11.364 5.63798C10.8787 5.43696 10.3585 5.3335 9.83325 5.3335C9.30796 5.3335 8.78782 5.43696 8.30252 5.63798C7.81722 5.839 7.37626 6.13363 7.00482 6.50507C6.63339 6.8765 6.33875 7.31746 6.13773 7.80276C5.93672 8.28806 5.83325 8.80821 5.83325 9.3335Z" stroke="#6F40DD" stroke-width="2" stroke-linecap="round" stroke-linejoin="round"/>
</g>
<defs>
<clipPath id="clip0_22_29727">
<rect width="32" height="32" fill="white" transform="translate(0.5)"/>
</clipPath>
</defs>
</svg>
