<svg width="40" height="40" viewBox="0 0 40 40" fill="none" xmlns="http://www.w3.org/2000/svg">
<g id="category-2 3" clip-path="url(#clip0_22_31778)">
<path id="Vector" d="M23.333 6.66699H33.333V16.667H23.333V6.66699Z" stroke="white" stroke-width="2" stroke-linecap="round" stroke-linejoin="round"/>
<path id="Vector_2" d="M6.66699 23.333H16.667V33.333H6.66699V23.333Z" stroke="white" stroke-width="2" stroke-linecap="round" stroke-linejoin="round"/>
<path id="Vector_3" d="M23.333 28.333C23.333 29.6591 23.8598 30.9309 24.7975 31.8685C25.7352 32.8062 27.0069 33.333 28.333 33.333C29.6591 33.333 30.9309 32.8062 31.8685 31.8685C32.8062 30.9309 33.333 29.6591 33.333 28.333C33.333 27.0069 32.8062 25.7352 31.8685 24.7975C30.9309 23.8598 29.6591 23.333 28.333 23.333C27.0069 23.333 25.7352 23.8598 24.7975 24.7975C23.8598 25.7352 23.333 27.0069 23.333 28.333Z" stroke="white" stroke-width="2" stroke-linecap="round" stroke-linejoin="round"/>
<path id="Vector_4" d="M6.66699 11.667C6.66699 12.3236 6.79632 12.9738 7.04759 13.5804C7.29887 14.187 7.66717 14.7382 8.13146 15.2025C8.59575 15.6668 9.14695 16.0351 9.75357 16.2864C10.3602 16.5377 11.0104 16.667 11.667 16.667C12.3236 16.667 12.9738 16.5377 13.5804 16.2864C14.187 16.0351 14.7382 15.6668 15.2025 15.2025C15.6668 14.7382 16.0351 14.187 16.2864 13.5804C16.5377 12.9738 16.667 12.3236 16.667 11.667C16.667 11.0104 16.5377 10.3602 16.2864 9.75357C16.0351 9.14695 15.6668 8.59575 15.2025 8.13146C14.7382 7.66717 14.187 7.29887 13.5804 7.04759C12.9738 6.79632 12.3236 6.66699 11.667 6.66699C11.0104 6.66699 10.3602 6.79632 9.75357 7.04759C9.14695 7.29887 8.59575 7.66717 8.13146 8.13146C7.66717 8.59575 7.29887 9.14695 7.04759 9.75357C6.79632 10.3602 6.66699 11.0104 6.66699 11.667Z" stroke="white" stroke-width="2" stroke-linecap="round" stroke-linejoin="round"/>
</g>
<defs>
<clipPath id="clip0_22_31778">
<rect width="40" height="40" fill="white"/>
</clipPath>
</defs>
</svg>
