<svg width="25" height="22" viewBox="0 0 25 22" fill="none" xmlns="http://www.w3.org/2000/svg">
<g id="Group">
<path id="Vector" d="M23.5916 0.335299C23.158 0.349562 22.7601 0.563496 22.5306 0.905793L10.2473 18.42L2.28974 12.0114C1.94797 11.681 1.43532 11.5574 0.963474 11.6953C0.49418 11.8308 0.144758 12.2016 0.0631421 12.6532C-0.0184741 13.1072 0.177914 13.5636 0.575797 13.837L9.67601 21.1774C9.96166 21.4032 10.3391 21.503 10.709 21.4531C11.0813 21.4008 11.4104 21.2035 11.6144 20.9111L24.7342 2.23695C25.0148 1.85424 25.0377 1.35981 24.7954 0.955716C24.5531 0.553991 24.0864 0.313903 23.5916 0.335299Z" fill="white"/>
</g>
</svg>
