<svg width="40" height="30" viewBox="0 0 40 30" fill="none" xmlns="http://www.w3.org/2000/svg">
<g id="Group 1798">
<rect id="Rectangle 598" width="40" height="30" rx="6" fill="#00B598"/>
<g id="Group">
<path id="Vector" d="M29.3926 6.00116C29.0355 6.01377 28.7079 6.20281 28.5188 6.50529L18.4025 21.9822L11.8488 16.3191C11.5673 16.0271 11.1451 15.9179 10.7565 16.0397C10.37 16.1595 10.0822 16.4871 10.015 16.8862C9.94779 17.2875 10.1095 17.6908 10.4372 17.9323L17.932 24.4188C18.1673 24.6184 18.4782 24.7066 18.7827 24.6625C19.0894 24.6163 19.3604 24.4419 19.5284 24.1836L30.3337 7.68161C30.5648 7.34342 30.5837 6.9065 30.3841 6.54941C30.1845 6.19442 29.8001 5.98225 29.3926 6.00116Z" fill="white"/>
</g>
</g>
</svg>
