<svg width="32" height="32" viewBox="0 0 32 32" fill="none" xmlns="http://www.w3.org/2000/svg">
<g clip-path="url(#clip0_1_48016)">
<path d="M10.6667 21.332L8.73733 22.2974C8.51589 22.408 8.32963 22.5781 8.1994 22.7887C8.06918 22.9992 8.00013 23.2418 8 23.4894V26.6654H24V23.4894C23.9999 23.2418 23.9308 22.9992 23.8006 22.7887C23.6704 22.5781 23.4841 22.408 23.2627 22.2974L21.3333 21.332H10.6667Z" stroke="#6F40DD" stroke-linecap="round" stroke-linejoin="round"/>
<path d="M11.9996 4.00035L13.3329 8.00035L8.67825 10.8644C8.43079 11.0164 8.23976 11.2451 8.13418 11.5157C8.0286 11.7862 8.01426 12.0839 8.09333 12.3634C8.17241 12.6428 8.34057 12.8888 8.57225 13.064C8.80394 13.2391 9.08648 13.3338 9.37691 13.3337H13.3329L10.5689 21.3337H21.1836L21.3329 14.667C21.3329 10.667 19.8796 6.68968 15.9996 5.33369C13.4129 4.42969 12.0796 3.98569 11.9996 4.00035Z" stroke="#6F40DD" stroke-linecap="round" stroke-linejoin="round"/>
</g>
<defs>
<clipPath id="clip0_1_48016">
<rect width="32" height="32" fill="white"/>
</clipPath>
</defs>
</svg>
