<svg width="32" height="32" viewBox="0 0 32 32" fill="none" xmlns="http://www.w3.org/2000/svg">
<g id="credit-card 3" clip-path="url(#clip0_23_42033)">
<path id="Vector" d="M4 10.666C4 9.60515 4.42143 8.58773 5.17157 7.83759C5.92172 7.08744 6.93913 6.66602 8 6.66602H24C25.0609 6.66602 26.0783 7.08744 26.8284 7.83759C27.5786 8.58773 28 9.60515 28 10.666V21.3327C28 22.3935 27.5786 23.411 26.8284 24.1611C26.0783 24.9112 25.0609 25.3327 24 25.3327H8C6.93913 25.3327 5.92172 24.9112 5.17157 24.1611C4.42143 23.411 4 22.3935 4 21.3327V10.666Z" stroke="#00B598" stroke-linecap="round" stroke-linejoin="round"/>
<path id="Vector_2" d="M4 13.334H28" stroke="#00B598" stroke-linecap="round" stroke-linejoin="round"/>
<path id="Vector_3" d="M9.33496 20H9.35329" stroke="#00B598" stroke-width="2" stroke-linecap="round" stroke-linejoin="round"/>
<path id="Vector_4" d="M14.665 20H17.3317" stroke="#00B598" stroke-linecap="round" stroke-linejoin="round"/>
</g>
<defs>
<clipPath id="clip0_23_42033">
<rect width="32" height="32" fill="white"/>
</clipPath>
</defs>
</svg>
