<svg width="116" height="116" viewBox="0 0 116 116" fill="none" xmlns="http://www.w3.org/2000/svg">
<g id="credit-card 1" clip-path="url(#clip0_26_82327)">
<path id="Vector" d="M14.5 38.6667C14.5 34.8211 16.0277 31.133 18.747 28.4137C21.4662 25.6944 25.1544 24.1667 29 24.1667H87C90.8456 24.1667 94.5338 25.6944 97.2531 28.4137C99.9723 31.133 101.5 34.8211 101.5 38.6667V77.3334C101.5 81.1791 99.9723 84.8672 97.2531 87.5865C94.5338 90.3057 90.8456 91.8334 87 91.8334H29C25.1544 91.8334 21.4662 90.3057 18.747 87.5865C16.0277 84.8672 14.5 81.1791 14.5 77.3334V38.6667Z" stroke="#00B598" stroke-width="2" stroke-linecap="round" stroke-linejoin="round"/>
<path id="Vector_2" d="M14.5 48.3333H101.5" stroke="#00B598" stroke-width="2" stroke-linecap="round" stroke-linejoin="round"/>
<path id="Vector_3" d="M33.832 72.5H33.8804" stroke="#00B598" stroke-width="3" stroke-linecap="round" stroke-linejoin="round"/>
<path id="Vector_4" d="M53.168 72.5H62.8346" stroke="#00B598" stroke-width="2" stroke-linecap="round" stroke-linejoin="round"/>
</g>
<defs>
<clipPath id="clip0_26_82327">
<rect width="116" height="116" fill="white"/>
</clipPath>
</defs>
</svg>
