<svg width="32" height="32" viewBox="0 0 32 32" fill="none" xmlns="http://www.w3.org/2000/svg">
<g clip-path="url(#clip0_1_48028)">
<path d="M15.9977 6.66602H20.6644C22.4325 6.66602 24.1282 7.36839 25.3784 8.61864C26.6287 9.86888 27.331 11.5646 27.331 13.3327C27.331 15.1008 26.6287 16.7965 25.3784 18.0467C24.1282 19.297 22.4325 19.9993 20.6644 19.9993H13.331L7.97772 25.6353C7.5198 26.1175 6.91758 26.4377 6.26183 26.5478C5.60607 26.6578 4.93231 26.5518 4.34206 26.2456C3.75182 25.9394 3.27709 25.4497 2.9894 24.8502C2.70171 24.2508 2.61665 23.574 2.74705 22.922L4.92572 12.0247C5.22813 10.5133 6.0449 9.15339 7.23705 8.17639C8.42919 7.19939 9.92304 6.66565 11.4644 6.66602H15.9977Z" stroke="#6F40DD" stroke-linecap="round" stroke-linejoin="round"/>
<path d="M18.6641 20.0004L24.0907 25.7124C24.5477 26.1933 25.1484 26.513 25.8025 26.6236C26.4566 26.7342 27.1289 26.6296 27.7186 26.3257C28.3083 26.0218 28.7835 25.5348 29.073 24.9379C29.3625 24.341 29.4506 23.6663 29.3241 23.0151L27.1907 12.0391" stroke="#6F40DD" stroke-linecap="round" stroke-linejoin="round"/>
<path d="M10.6641 12V14.6667" stroke="#6F40DD" stroke-linecap="round" stroke-linejoin="round"/>
<path d="M9.33594 13.334H12.0026" stroke="#6F40DD" stroke-linecap="round" stroke-linejoin="round"/>
<path d="M18.6641 13.334H21.3307" stroke="#6F40DD" stroke-linecap="round" stroke-linejoin="round"/>
</g>
<defs>
<clipPath id="clip0_1_48028">
<rect width="32" height="32" fill="white"/>
</clipPath>
</defs>
</svg>
