<svg width="32" height="32" viewBox="0 0 32 32" fill="none" xmlns="http://www.w3.org/2000/svg">
<g id="device-mobile 3" clip-path="url(#clip0_23_42043)">
<path id="Vector" d="M8 6.66667C8 5.95942 8.28095 5.28115 8.78105 4.78105C9.28115 4.28095 9.95942 4 10.6667 4H21.3333C22.0406 4 22.7189 4.28095 23.219 4.78105C23.719 5.28115 24 5.95942 24 6.66667V25.3333C24 26.0406 23.719 26.7189 23.219 27.219C22.7189 27.719 22.0406 28 21.3333 28H10.6667C9.95942 28 9.28115 27.719 8.78105 27.219C8.28095 26.7189 8 26.0406 8 25.3333V6.66667Z" stroke="#00B598" stroke-linecap="round" stroke-linejoin="round"/>
<path id="Vector_2" d="M14.665 5.33398H17.3317" stroke="#00B598" stroke-width="2" stroke-linecap="round" stroke-linejoin="round"/>
<path id="Vector_3" d="M16 22.666V22.6843" stroke="#00B598" stroke-width="2" stroke-linecap="round" stroke-linejoin="round"/>
</g>
<defs>
<clipPath id="clip0_23_42043">
<rect width="32" height="32" fill="white"/>
</clipPath>
</defs>
</svg>
