<svg width="116" height="116" viewBox="0 0 116 116" fill="none" xmlns="http://www.w3.org/2000/svg">
<g id="device-mobile 1" clip-path="url(#clip0_26_82333)">
<path id="Vector" d="M29 24.1667C29 21.6029 30.0184 19.1442 31.8313 17.3313C33.6442 15.5184 36.1029 14.5 38.6667 14.5H77.3333C79.8971 14.5 82.3558 15.5184 84.1687 17.3313C85.9816 19.1442 87 21.6029 87 24.1667V91.8333C87 94.3971 85.9816 96.8558 84.1687 98.6687C82.3558 100.482 79.8971 101.5 77.3333 101.5H38.6667C36.1029 101.5 33.6442 100.482 31.8313 98.6687C30.0184 96.8558 29 94.3971 29 91.8333V24.1667Z" stroke="#00B598" stroke-width="2" stroke-linecap="round" stroke-linejoin="round"/>
<path id="Vector_2" d="M53.168 19.3333H62.8346" stroke="#00B598" stroke-width="2" stroke-linecap="round" stroke-linejoin="round"/>
<path id="Vector_3" d="M58 82.1667V82.2151" stroke="#00B598" stroke-width="3" stroke-linecap="round" stroke-linejoin="round"/>
</g>
<defs>
<clipPath id="clip0_26_82333">
<rect width="116" height="116" fill="white"/>
</clipPath>
</defs>
</svg>
