<svg width="32" height="32" viewBox="0 0 32 32" fill="none" xmlns="http://www.w3.org/2000/svg">
<g id="eye 2" clip-path="url(#clip0_26_58824)">
<path id="Vector" d="M13.3335 16C13.3335 16.7073 13.6144 17.3856 14.1145 17.8857C14.6146 18.3858 15.2929 18.6667 16.0002 18.6667C16.7074 18.6667 17.3857 18.3858 17.8858 17.8857C18.3859 17.3856 18.6668 16.7073 18.6668 16C18.6668 15.2928 18.3859 14.6145 17.8858 14.1144C17.3857 13.6143 16.7074 13.3334 16.0002 13.3334C15.2929 13.3334 14.6146 13.6143 14.1145 14.1144C13.6144 14.6145 13.3335 15.2928 13.3335 16Z" stroke="#2E2E2E" stroke-linecap="round" stroke-linejoin="round"/>
<path id="Vector_2" d="M28 16C24.8 21.3333 20.8 24 16 24C11.2 24 7.2 21.3333 4 16C7.2 10.6667 11.2 8 16 8C20.8 8 24.8 10.6667 28 16Z" stroke="#2E2E2E" stroke-linecap="round" stroke-linejoin="round"/>
</g>
<defs>
<clipPath id="clip0_26_58824">
<rect width="32" height="32" fill="white"/>
</clipPath>
</defs>
</svg>
