<svg width="26" height="26" viewBox="0 0 26 26" fill="none" xmlns="http://www.w3.org/2000/svg">
<g id="Group">
<g id="Group_2">
<path id="Vector" d="M13.0002 0.333374C6.00455 0.333374 0.333496 6.00443 0.333496 13C0.333496 19.9956 6.00455 25.6667 13.0002 25.6667C19.9958 25.6667 25.6668 19.9956 25.6668 13C25.6668 6.00443 19.9958 0.333374 13.0002 0.333374Z" fill="#3872DC"/>
<path id="Vector_2" d="M14.715 16.3574H17.993L18.5077 13.0274H14.7143V11.2074C14.7143 9.82406 15.1663 8.59739 16.4603 8.59739H18.5397V5.69139C18.1743 5.64206 17.4017 5.53406 15.9417 5.53406C12.893 5.53406 11.1057 7.14406 11.1057 10.8121V13.0274H7.97168V16.3574H11.1057V25.51C11.7263 25.6034 12.355 25.6667 13.0003 25.6667C13.5837 25.6667 14.153 25.6134 14.715 25.5374V16.3574Z" fill="white"/>
</g>
</g>
</svg>
