<svg width="32" height="32" viewBox="0 0 32 32" fill="none" xmlns="http://www.w3.org/2000/svg">
<path d="M20.4805 8.41016H27.4805" stroke="#6F40DD" stroke-linecap="round" stroke-linejoin="round"/>
<path d="M4.59766 8.41016H11.5977" stroke="#6F40DD" stroke-linecap="round" stroke-linejoin="round"/>
<path d="M13.2813 22.7741C13.2813 26.6862 10.5949 29.8574 7.28122 29.8574C3.96753 29.8574 1.28125 26.6862 1.28125 22.7741M13.2813 22.7741H1.28125M13.2813 22.7741L7.28122 12.8574L1.28125 22.7741" stroke="#6F40DD" stroke-linecap="round" stroke-linejoin="round"/>
<path d="M30.9961 22.7741C30.9961 26.6862 28.3098 29.8574 24.9961 29.8574C21.6824 29.8574 18.9961 26.6862 18.9961 22.7741M30.9961 22.7741H18.9961M30.9961 22.7741L24.9961 12.8574L18.9961 22.7741" stroke="#6F40DD" stroke-linecap="round" stroke-linejoin="round"/>
<path d="M15.9844 11.5234C18.1935 11.5234 19.9844 9.73258 19.9844 7.52344C19.9844 5.3143 18.1935 3.52344 15.9844 3.52344C13.7752 3.52344 11.9844 5.3143 11.9844 7.52344C11.9844 9.73258 13.7752 11.5234 15.9844 11.5234Z" stroke="#6F40DD"/>
</svg>
