<svg width="32" height="32" viewBox="0 0 32 32" fill="none" xmlns="http://www.w3.org/2000/svg">
<g clip-path="url(#clip0_2240_769)">
<path d="M26.0017 16.7629L16.0017 26.6669L6.0017 16.7629C5.34211 16.1211 4.82256 15.3496 4.47577 14.4971C4.12897 13.6446 3.96245 12.7295 3.98669 11.8095C4.01092 10.8895 4.22539 9.98442 4.61658 9.15135C5.00777 8.31829 5.56722 7.57524 6.25969 6.96901C6.95215 6.36278 7.76264 5.90649 8.64012 5.62888C9.51759 5.35127 10.443 5.25835 11.3582 5.35597C12.2733 5.45359 13.1584 5.73965 13.9575 6.19611C14.7567 6.65258 15.4527 7.26957 16.0017 8.00824C16.5531 7.27493 17.2499 6.66333 18.0485 6.21171C18.8471 5.76009 19.7304 5.47817 20.6429 5.3836C21.5555 5.28902 22.4778 5.38383 23.3521 5.66209C24.2263 5.94035 25.0337 6.39607 25.7238 7.00072C26.4138 7.60537 26.9716 8.34595 27.3623 9.17609C27.7529 10.0062 27.968 10.9081 27.9941 11.8252C28.0202 12.7423 27.8567 13.6549 27.5139 14.5059C27.171 15.3569 26.6562 16.128 26.0017 16.7709" stroke="#6F40DD" stroke-linecap="round" stroke-linejoin="round"/>
</g>
<defs>
<clipPath id="clip0_2240_769">
<rect width="32" height="32" fill="white"/>
</clipPath>
</defs>
</svg>
