<svg width="33" height="32" viewBox="0 0 33 32" fill="none" xmlns="http://www.w3.org/2000/svg">
<path d="M28.166 8.98667C27.8993 9.16 27.5193 9.32 27.3593 9.5C27.2993 9.56 27.266 9.62667 27.2793 9.69333V10.38L27.0793 11.0533L26.8793 11.72L26.6593 12.4533L26.206 13.9533L25.766 15.4333L25.4327 16.5467C25.4327 16.72 25.426 16.8933 25.4127 17.06C25.366 17.7 25.2327 18.3133 25.0193 18.8867C24.8927 19.24 24.7393 19.58 24.5527 19.9C24.486 20.0267 24.406 20.1533 24.326 20.2733C24.0593 20.6933 23.7393 21.08 23.386 21.42C23.1127 21.6933 22.8127 21.9467 22.486 22.16C22.486 22.16 22.486 22.16 22.4793 22.16C22.426 22.2067 22.366 22.2467 22.2993 22.28C22.0927 22.42 21.8727 22.54 21.646 22.6467C21.4927 22.7267 21.3393 22.7933 21.1793 22.8533C21.146 22.8733 21.106 22.8867 21.0727 22.9C20.6927 23.08 20.2527 23.2 19.8127 23.26C19.786 23.2667 19.766 23.2667 19.7393 23.2733C19.4727 23.32 19.2127 23.36 18.946 23.38C18.826 23.3933 18.6993 23.4 18.5793 23.4L18.106 23.3733L15.826 23.2533C15.826 23.2467 15.8193 23.2533 15.8193 23.2533L14.6727 23.1933C14.586 23.1933 14.4927 23.1933 14.406 23.1867C14.046 23.1733 13.6993 23.1333 13.3527 23.06C13.346 23.06 13.346 23.06 13.346 23.06C12.7127 22.94 12.106 22.7267 11.5393 22.44C11.226 22.28 10.9193 22.1 10.6327 21.8933C10.5127 21.8067 10.3993 21.7133 10.286 21.6133C9.966 21.3467 9.67934 21.06 9.41267 20.7667C9.37267 20.7267 9.33934 20.6867 9.306 20.6467C9.266 20.6067 9.226 20.56 9.19267 20.52C8.93934 20.2 8.726 19.8733 8.55267 19.5267C8.39267 19.22 8.266 18.8933 8.166 18.5333C8.126 18.4067 8.09267 18.2867 8.066 18.1533C8.05934 18.1467 8.05267 18.1333 8.05267 18.12C7.986 17.8467 7.926 17.56 7.89267 17.2733C7.85267 17.0533 7.83267 16.8333 7.83267 16.6067C7.81934 16.52 7.81934 16.4267 7.81934 16.34L9.09267 14.3733L10.3393 12.4533L10.906 11.58L11.4193 10.7933L11.5927 10.52V9.83333C11.606 9.68 11.6127 9.52 11.606 9.37333C11.5993 8.90667 11.506 8.45333 11.3527 8.02C11.206 7.56 10.9993 7.12667 10.786 6.72667C10.5327 6.26667 10.266 5.85333 10.046 5.48C9.71934 4.93333 9.49267 4.48667 9.55267 4.17333C10.0327 4.06 10.5393 4 11.0527 4H21.7193C24.506 4 26.906 5.73333 27.8993 8.17333C28.006 8.43333 28.0993 8.70667 28.166 8.98667Z" fill="#304FFE"/>
<path d="M28.3852 10.6667V10.8467L27.4652 11.38L26.8785 11.72L26.2318 12.0933L24.9385 12.8467L23.6718 13.58L22.3785 14.3267L21.8652 14.6267C21.8652 14.9467 21.7852 15.24 21.6385 15.5067C21.4318 15.8933 21.0852 16.2133 20.6452 16.4867C20.1985 16.76 19.6518 16.98 19.0385 17.14C19.0385 17.14 19.0385 17.1333 19.0318 17.14C16.6585 17.7533 13.4185 17.4733 11.8452 16.3C11.4052 15.9733 11.0985 15.5733 10.9652 15.1133C10.9252 14.96 10.9052 14.7933 10.9052 14.6267V9.83333C10.9118 9.73333 10.8452 9.63333 10.7252 9.53333C10.3652 9.24667 9.5185 8.97333 8.57184 8.7C7.83184 8.49333 7.0385 8.28667 6.37184 8.08667C5.84517 7.92667 5.3985 7.76667 5.13184 7.61333C5.25184 7.38 5.39184 7.14667 5.5385 6.92667C6.47184 5.56 7.8985 4.55333 9.55184 4.17333C10.0318 4.06 10.5385 4 11.0518 4H18.2518C21.8318 4.62667 25.1318 6.08667 27.8985 8.17333C28.0052 8.43333 28.0985 8.70667 28.1652 8.98667C28.2852 9.42667 28.3585 9.88 28.3785 10.3533C28.3852 10.4533 28.3852 10.56 28.3852 10.6667Z" fill="#4928F4"/>
<path d="M28.3857 10.6657V13.6057L28.239 14.0591L27.739 15.6124L27.219 17.2124L26.9457 18.0657L26.6924 18.8591L26.4457 19.6124L26.2057 20.3591L26.079 20.7524L25.9124 21.2724C25.9124 21.7791 25.899 22.2257 25.8657 22.6057C25.859 22.6457 25.8524 22.6857 25.8524 22.7257C25.8124 23.0791 25.759 23.3791 25.6724 23.6324C25.6657 23.6724 25.6524 23.7124 25.639 23.7457C25.4657 24.2257 25.2057 24.5324 24.819 24.7324C24.7257 24.7857 24.619 24.8257 24.5057 24.8657C24.1524 24.9857 23.7057 25.0457 23.159 25.0791C22.759 25.1057 22.299 25.1124 21.779 25.1124H21.319L20.5257 25.0791L20.3857 25.0724L18.939 25.0124L17.4724 24.9524L12.639 24.7524L11.3857 24.6991H11.2124C10.6924 24.6924 10.2457 24.6591 9.85902 24.6057C9.29902 24.5191 8.86569 24.3724 8.53902 24.1524C8.07236 23.8524 7.79902 23.4124 7.63902 22.7991C7.59902 22.6524 7.56569 22.4991 7.54569 22.3324C7.47902 21.9457 7.44569 21.4991 7.42569 20.9991C7.42569 20.8991 7.42569 20.7991 7.41902 20.6924C7.41236 20.6857 7.41902 20.6857 7.41902 20.6857V20.2991C7.41236 20.1057 7.41236 19.9057 7.41236 19.6991L7.44569 18.6257L7.46569 17.8591L7.49236 16.9657V16.8391L7.53902 15.1991L7.58569 13.5591L7.63236 12.0191L7.67236 10.5057L7.68569 10.1057C7.68569 9.89906 6.98569 9.77906 6.20569 9.67906C5.58569 9.59906 4.90569 9.52573 4.49902 9.4324C4.53236 9.27906 4.56569 9.12573 4.60569 8.97906C4.72569 8.49906 4.90569 8.04573 5.13236 7.6124C5.25236 7.37906 5.39236 7.14573 5.53902 6.92573C6.97902 6.2924 8.47902 5.79906 10.0457 5.47906C11.419 5.1924 12.8524 5.03906 14.3324 5.03906C19.239 5.03906 23.7724 6.69906 27.359 9.49906C27.7057 9.76573 28.0457 10.0524 28.379 10.3524C28.3857 10.4524 28.3857 10.5591 28.3857 10.6657Z" fill="#6200EA"/>
<path d="M28.3857 12.2463V15.2729L28.0191 15.9796L27.3191 17.3463L26.9457 18.0663L26.6057 18.7262L26.4591 19.0129C26.4591 19.2196 26.4591 19.4196 26.4457 19.6129C26.4457 19.8996 26.4324 20.1729 26.4124 20.4262C26.3857 20.7262 26.3457 20.9996 26.3057 21.2529C26.2057 21.7796 26.0657 22.2329 25.8657 22.6063C25.8391 22.6529 25.8124 22.6996 25.7857 22.7396C25.7124 22.8596 25.6257 22.9729 25.5324 23.0796C25.4124 23.2262 25.2791 23.3529 25.1257 23.4596C24.8991 23.6329 24.6324 23.7729 24.3257 23.8796C23.9457 24.0196 23.5057 24.1129 22.9857 24.1663C22.6457 24.1996 22.2724 24.2196 21.8657 24.2196L21.5857 24.2329L20.1991 24.3129H20.1924L18.7191 24.3996L17.2191 24.4862L15.1524 24.6063L12.6391 24.7529L12.2724 24.7729C11.9324 24.7729 11.6124 24.7529 11.3057 24.7129C11.2724 24.7062 11.2457 24.6996 11.2124 24.6996C10.7591 24.6262 10.3457 24.5062 9.97241 24.3396C9.51908 24.1396 9.12574 23.8729 8.79241 23.5529C8.49908 23.2663 8.24574 22.9396 8.03908 22.5729C7.99241 22.4862 7.94574 22.4062 7.90574 22.3129C7.70574 21.9196 7.54574 21.4796 7.42574 20.9996C7.40574 20.9196 7.38574 20.8329 7.37241 20.7463C7.33241 20.5929 7.29908 20.4329 7.27908 20.2663C7.20574 19.8396 7.16574 19.3863 7.14574 18.9129V18.9062C7.13908 18.7129 7.13241 18.5263 7.13241 18.3263L6.80574 17.5462L6.75908 17.4262L6.71908 17.3263L6.21908 16.1329L6.13908 15.9396L5.65908 14.7863L5.12574 13.4996C5.12574 13.4996 5.12574 13.4996 5.11908 13.4996L4.57908 12.1996L4.38574 11.7263V10.6663C4.38574 10.2463 4.42574 9.83292 4.49908 9.43292C4.53241 9.27958 4.56574 9.12625 4.60574 8.97958C5.17241 8.65292 5.76574 8.35292 6.37241 8.08625C7.75908 7.46625 9.24574 7.00625 10.7857 6.72625C11.9324 6.51958 13.1257 6.40625 14.3324 6.40625C19.2057 6.40625 23.6257 8.17292 27.0791 11.0529C27.2124 11.1596 27.3391 11.2663 27.4657 11.3796C27.7791 11.6529 28.0857 11.9396 28.3857 12.2463Z" fill="#673AB7"/>
<path d="M28.3857 14.2326V17.6593L28.0057 18.4526L27.2857 19.9526L27.2791 19.9726C27.2791 20.2593 27.2657 20.5193 27.2457 20.7526C27.1791 21.5193 26.9924 22.006 26.6857 22.306C26.4657 22.5326 26.1924 22.6593 25.8524 22.726C25.8324 22.7326 25.8057 22.7326 25.7857 22.7393C25.6791 22.7593 25.5657 22.7726 25.4457 22.7726C25.0324 22.8126 24.5457 22.786 23.9857 22.746C23.9257 22.746 23.8591 22.7393 23.7924 22.7326C23.3857 22.706 22.9524 22.6793 22.4724 22.6593C22.2124 22.6526 21.9391 22.646 21.6591 22.646H21.6457L20.9724 22.6993H20.9657L19.4524 22.806L17.7257 22.9393L17.4724 22.9593L15.4524 23.106L14.4057 23.186L13.3724 23.2593C13.1924 23.2593 13.0191 23.2593 12.8457 23.2526C12.8457 23.2526 12.8391 23.246 12.8391 23.2526C12.0857 23.2393 11.4124 23.1926 10.8124 23.0793C10.2591 22.986 9.77241 22.8393 9.35908 22.6193C8.93241 22.4126 8.57908 22.1193 8.29241 21.746C8.01908 21.3793 7.81908 20.9193 7.69241 20.366C7.69241 20.3593 7.69241 20.3593 7.69241 20.3593C7.59908 19.9126 7.54574 19.3926 7.54574 18.806L7.44574 18.626L6.85241 17.566L6.76574 17.4193L6.71908 17.326L6.09908 16.226L5.79241 15.6726L5.40574 14.986L4.73908 13.7926L4.38574 13.166V10.7126C4.97241 10.326 5.57908 9.98596 6.20574 9.6793C6.96574 9.29263 7.75241 8.96596 8.57241 8.6993C9.46574 8.40596 10.3991 8.17263 11.3524 8.0193C12.3191 7.8593 13.3124 7.7793 14.3324 7.7793C18.8657 7.7793 23.0257 9.3993 26.2324 12.0926C26.3791 12.206 26.5191 12.3326 26.6591 12.4526C27.2191 12.9526 27.7524 13.4926 28.2391 14.0593C28.2924 14.1193 28.3457 14.1726 28.3857 14.2326Z" fill="#8E24AA"/>
<path d="M28.3857 16.4732V21.2932C28.2257 21.1998 28.0057 21.0865 27.7324 20.9665C27.5857 20.8932 27.4191 20.8198 27.2457 20.7532C26.9924 20.6398 26.7191 20.5331 26.4124 20.4265C26.3457 20.3998 26.2791 20.3798 26.2057 20.3598C26.0857 20.3132 25.9591 20.2732 25.8324 20.2332C25.4391 20.1132 25.0057 19.9998 24.5524 19.8998C24.3791 19.8665 24.1991 19.8332 24.0191 19.8065C23.4391 19.7065 22.8191 19.6465 22.1724 19.6398C22.1191 19.6332 22.0591 19.6332 22.0057 19.6332L20.2924 19.6465L17.9591 19.6598H17.9524L12.9591 19.6998C11.3724 19.6998 10.3991 20.0798 9.81241 20.2332C9.81241 20.2332 9.80574 20.2332 9.80574 20.2398C9.18574 20.3998 8.99241 20.2998 8.93908 19.2132C8.92574 18.9132 8.91908 18.5265 8.91908 18.0532L8.54574 17.7665L7.89241 17.2732L7.49241 16.9665L7.41241 16.9065L6.30574 16.0665L6.13908 15.9398L5.79241 15.6732L5.15241 15.1932L4.38574 14.6065V12.3398C4.45241 12.2865 4.51241 12.2398 4.57908 12.1998C5.54574 11.5332 6.57908 10.9665 7.67241 10.5065C8.64574 10.0932 9.67241 9.76648 10.7257 9.53315C11.0124 9.47315 11.3057 9.41315 11.6057 9.37315C12.4924 9.21982 13.4057 9.14648 14.3324 9.14648C18.3391 9.14648 22.0191 10.5398 24.9391 12.8465C25.3791 13.1932 25.8057 13.5598 26.2057 13.9532C26.7524 14.4732 27.2657 15.0265 27.7391 15.6132C27.8324 15.7332 27.9257 15.8532 28.0191 15.9798C28.1457 16.1398 28.2657 16.3065 28.3857 16.4732Z" fill="#C2185B"/>
<path d="M28.3857 19.1462V21.3329C28.3857 21.7662 28.3457 22.1929 28.2657 22.6062C28.1457 23.2195 27.9391 23.8062 27.6591 24.3529C27.5124 24.3862 27.3457 24.3862 27.1591 24.3595C26.7391 24.2862 26.2457 24.0662 25.7124 23.7795C25.6857 23.7729 25.6591 23.7595 25.6391 23.7462C25.4724 23.6595 25.2991 23.5662 25.1257 23.4595C24.7724 23.2662 24.3991 23.0529 24.0257 22.8529C23.9457 22.8129 23.8657 22.7729 23.7924 22.7329C23.3657 22.5129 22.9257 22.3129 22.4857 22.1595C22.4857 22.1595 22.4857 22.1595 22.4791 22.1595C22.3857 22.1262 22.2857 22.0929 22.1857 22.0662C21.8057 21.9595 21.4191 21.8929 21.0457 21.8929L20.3124 21.6795L17.0657 20.7395C17.0657 20.7395 17.0657 20.7395 17.0591 20.7395L15.0657 20.1595H15.0591L14.1924 19.9062C11.6857 19.9062 10.1457 20.9729 9.39908 20.5662C9.10574 20.4129 8.93241 20.0262 8.87241 19.2662C8.85241 19.0529 8.84574 18.8129 8.84574 18.5329L8.06574 18.1529L8.03241 18.1395H8.02574L7.46574 17.8595L6.85241 17.5662L6.80574 17.5462L6.69241 17.4862L5.38574 16.8529L4.38574 16.3662V14.0795C4.49908 13.9795 4.61908 13.8862 4.73908 13.7929C4.86574 13.6929 4.99241 13.5995 5.11908 13.4995C5.12574 13.4995 5.12574 13.4995 5.12574 13.4995C5.91241 12.9329 6.74574 12.4329 7.63241 12.0195C8.66574 11.5262 9.76574 11.1462 10.9057 10.8995C11.0724 10.8595 11.2457 10.8195 11.4191 10.7929C12.3657 10.6129 13.3391 10.5195 14.3324 10.5195C17.8457 10.5195 21.0724 11.6595 23.6724 13.5795C24.4257 14.1395 25.1257 14.7595 25.7657 15.4329C26.2924 15.9862 26.7791 16.5862 27.2191 17.2129C27.2524 17.2595 27.2857 17.3062 27.3191 17.3462C27.5657 17.7062 27.7924 18.0729 28.0057 18.4529C28.1457 18.6795 28.2657 18.9129 28.3857 19.1462Z" fill="#D81B60"/>
<path d="M28.2657 22.6067C28.1457 23.2201 27.9391 23.8067 27.6591 24.3534C27.5324 24.6001 27.3924 24.8334 27.2391 25.0601C27.1457 25.2001 27.0457 25.3334 26.9457 25.4601C26.7057 25.3667 26.3524 25.2334 25.9191 25.0867C25.9191 25.0867 25.9191 25.0867 25.9191 25.0801C25.5924 24.9667 25.2191 24.8467 24.8191 24.7334C24.7057 24.7001 24.5924 24.6667 24.4724 24.6334C23.9991 24.5067 23.5057 24.3934 23.0257 24.3267C22.6257 24.2601 22.2324 24.2201 21.8657 24.2201L21.5591 24.1334H21.5524L19.9391 23.6667L18.9457 23.3801L17.8391 23.0601H17.8324L17.4724 22.9601L13.1191 21.7067L11.8657 21.3467L10.9324 21.1267L9.41241 20.7667L9.22574 20.7201C9.22574 20.7201 9.22574 20.7201 9.21908 20.7201L7.69241 20.3667C7.69241 20.3601 7.69241 20.3601 7.69241 20.3601L7.41908 20.3001L7.27908 20.2667L6.16574 20.0067L6.03908 19.9734L5.09241 19.1934L4.38574 18.6001V15.8801C4.63241 15.6401 4.88574 15.4134 5.15241 15.1934C5.23241 15.1201 5.31908 15.0534 5.40574 14.9867C5.48574 14.9201 5.57241 14.8534 5.65908 14.7867C6.26574 14.3267 6.90574 13.9134 7.58574 13.5601C8.45241 13.0934 9.37241 12.7201 10.3391 12.4534C10.5257 12.3934 10.7124 12.3401 10.9057 12.3001C11.9991 12.0267 13.1457 11.8867 14.3324 11.8867C17.3124 11.8867 20.0857 12.7867 22.3791 14.3267C23.5191 15.0934 24.5457 16.0134 25.4124 17.0601C25.8524 17.5867 26.2524 18.1401 26.6057 18.7267C26.6391 18.7734 26.6657 18.8134 26.6924 18.8601C26.9057 19.2134 27.1057 19.5801 27.2857 19.9534C27.4524 20.2867 27.5991 20.6201 27.7324 20.9667C27.9457 21.5001 28.1191 22.0467 28.2657 22.6067Z" fill="#F50057"/>
<path d="M27.2391 25.0598C27.1457 25.1998 27.0457 25.3331 26.9457 25.4598C26.6524 25.8264 26.3324 26.1598 25.9724 26.4531C25.6591 26.7131 25.3257 26.9464 24.9724 27.1464C24.8391 27.1131 24.7057 27.0731 24.5657 27.0198C24.1257 26.8664 23.6657 26.6131 23.2391 26.3464C22.5991 25.9398 22.0457 25.4998 21.7991 25.2998C21.7057 25.2198 21.6591 25.1798 21.6591 25.1798L20.5257 25.0798L20.3857 25.0664L18.9191 24.9398L17.3991 24.8064L15.1524 24.6064L11.5924 24.2931L11.5791 24.2864L10.3257 23.6798L9.05908 23.0664L8.03908 22.5731L7.81908 22.4664L7.54574 22.3331L6.59908 21.8731L5.33908 21.2664L4.94574 21.0731L4.38574 20.8998V17.9198C4.69908 17.5464 5.03241 17.1931 5.38574 16.8531C5.61241 16.6398 5.85241 16.4264 6.09908 16.2264C6.13908 16.1931 6.17908 16.1598 6.21908 16.1331C6.24574 16.0998 6.27908 16.0798 6.30574 16.0664C6.69908 15.7464 7.11241 15.4598 7.53908 15.1998C8.03241 14.8864 8.55241 14.6064 9.09241 14.3731C9.67241 14.1131 10.2791 13.8931 10.9057 13.7264C11.9924 13.4198 13.1457 13.2598 14.3324 13.2598C17.0524 13.2598 19.5657 14.0864 21.6391 15.5064C22.9657 16.4131 24.1124 17.5598 25.0191 18.8864C25.3191 19.3131 25.5857 19.7664 25.8324 20.2331C25.9191 20.4064 26.0057 20.5798 26.0791 20.7531C26.1591 20.9198 26.2324 21.0864 26.3057 21.2531C26.4457 21.5998 26.5724 21.9464 26.6857 22.3064C26.8991 22.9731 27.0591 23.6531 27.1591 24.3598C27.1924 24.5931 27.2191 24.8264 27.2391 25.0598Z" fill="#FF1744"/>
<path d="M25.9791 26.2803C25.9791 26.3336 25.9791 26.3936 25.9724 26.4536C25.6591 26.7136 25.3257 26.947 24.9724 27.147C24.8257 27.227 24.6791 27.307 24.5257 27.3736C24.3724 27.447 24.2191 27.5136 24.0591 27.5736C23.8324 27.4536 23.5257 27.307 23.1991 27.167C22.7391 26.9603 22.2391 26.7736 21.8524 26.7136C21.7591 26.6936 21.6724 26.687 21.5924 26.687L20.4991 26.547H20.4857L19.1257 26.367L17.7524 26.187L17.1124 26.107L12.0724 25.4536C11.7457 25.4536 11.3991 25.4336 11.0391 25.387C10.5991 25.347 10.1391 25.2803 9.67907 25.187C9.22574 25.107 8.76574 25.0003 8.32574 24.887C7.86574 24.7803 7.41241 24.6536 6.99241 24.5336C6.50574 24.387 6.05241 24.247 5.67241 24.1203C5.35908 24.0203 5.09241 23.927 4.88574 23.8536C4.76574 23.567 4.66574 23.267 4.59241 22.9603C4.45241 22.4403 4.38574 21.8936 4.38574 21.3336V20.2203C4.59908 19.867 4.83241 19.5203 5.09241 19.1936C5.56574 18.567 6.10574 17.9936 6.69241 17.487C6.71241 17.4603 6.73908 17.4403 6.75908 17.427L6.76574 17.4203C6.97241 17.2336 7.18574 17.067 7.41241 16.907C7.43908 16.8803 7.46574 16.8603 7.49241 16.8403C7.59908 16.7603 7.71241 16.6803 7.83241 16.607C8.78574 15.9603 9.83908 15.4536 10.9657 15.1136C12.0324 14.7936 13.1591 14.627 14.3324 14.627C16.6591 14.627 18.8324 15.3136 20.6457 16.487C21.9857 17.347 23.1391 18.4803 24.0191 19.807C24.1257 19.9603 24.2257 20.1136 24.3257 20.2736C24.7857 21.0536 25.1657 21.8936 25.4457 22.7736C25.4791 22.8736 25.5057 22.9736 25.5324 23.0803C25.5857 23.2603 25.6324 23.447 25.6724 23.6336C25.6857 23.6803 25.6991 23.727 25.7124 23.7803C25.8057 24.2003 25.8724 24.6403 25.9191 25.0803C25.9191 25.087 25.9191 25.087 25.9191 25.087C25.9591 25.4803 25.9791 25.8803 25.9791 26.2803Z" fill="#FF5722"/>
<path d="M24.6061 26.28C24.6061 26.5133 24.5928 26.7667 24.5661 27.02C24.5528 27.14 24.5394 27.26 24.5261 27.3733C24.3728 27.4467 24.2194 27.5133 24.0594 27.5733C23.7594 27.6867 23.4528 27.78 23.1394 27.8467C22.9261 27.8933 22.7061 27.9333 22.4861 27.9533H22.4794C22.2728 27.8267 22.0328 27.6733 21.7861 27.5C21.3394 27.1867 20.8728 26.8333 20.4994 26.5467C20.4928 26.54 20.4928 26.54 20.4861 26.5333C20.0928 26.2333 19.8128 26.0067 19.8128 26.0067L19.1061 26.0333L17.7461 26.08L17.1128 26.1067L14.5661 26.2L12.4128 26.28C12.2728 26.2867 12.1061 26.2867 11.8994 26.28H11.8928C11.6128 26.2733 11.2794 26.2533 10.9128 26.22C10.4861 26.1867 10.0194 26.1467 9.54611 26.1C9.08611 26.0467 8.61944 25.9933 8.17277 25.94C7.67944 25.8867 7.21277 25.8267 6.81277 25.7733C6.49944 25.7333 6.22611 25.7 6.00611 25.6733C5.81944 25.46 5.65277 25.24 5.49277 25C5.25277 24.64 5.04611 24.26 4.88611 23.8533C4.76611 23.5667 4.66611 23.2667 4.59277 22.96C4.78611 22.3667 5.03944 21.8067 5.33944 21.2667C5.57944 20.8267 5.85944 20.4067 6.16611 20.0067C6.46611 19.6133 6.79277 19.2467 7.14611 18.9133V18.9067C7.24611 18.8067 7.34611 18.7133 7.44611 18.6267C7.63277 18.4533 7.82611 18.2933 8.02611 18.14H8.03277C8.03944 18.1267 8.04611 18.1267 8.05277 18.12C8.21277 17.9933 8.37944 17.88 8.54611 17.7667C9.53277 17.0933 10.6461 16.5933 11.8461 16.3C12.6394 16.1067 13.4728 16 14.3328 16C16.0261 16 17.6261 16.4067 19.0328 17.14H19.0394C20.2461 17.76 21.3128 18.6133 22.1728 19.64C22.6461 20.1867 23.0528 20.7867 23.3861 21.42C23.6194 21.8467 23.8194 22.2933 23.9861 22.7467C23.9994 22.7867 24.0128 22.82 24.0261 22.8533C24.1394 23.1867 24.2394 23.5333 24.3261 23.88C24.3861 24.1267 24.4328 24.38 24.4728 24.6333C24.4861 24.7133 24.4994 24.7867 24.5061 24.8667C24.5728 25.3267 24.6061 25.8 24.6061 26.28Z" fill="#FF6F00"/>
<path d="M23.2379 26.2797V26.3464C23.2379 26.573 23.2179 26.8597 23.1979 27.1664C23.1779 27.393 23.1579 27.6264 23.1379 27.8464C22.9245 27.893 22.7045 27.933 22.4845 27.953H22.4779C22.2245 27.9864 21.9779 27.9997 21.7179 27.9997H20.5512L20.2979 27.9264L18.9845 27.5264L17.6512 27.1264L14.5645 26.1997L13.2312 25.7997C13.2312 25.7997 12.6779 26.0197 11.8979 26.2797H11.8912C11.5912 26.3797 11.2645 26.4864 10.9179 26.593C10.4845 26.7197 10.0245 26.8464 9.57121 26.9464C9.10454 27.053 8.64454 27.133 8.23121 27.1664C8.10454 27.1797 7.97788 27.1864 7.86454 27.1864C7.49121 26.9797 7.13121 26.733 6.80454 26.4597C6.51788 26.2197 6.25121 25.9597 6.00454 25.673C5.81788 25.4597 5.65121 25.2397 5.49121 24.9997C5.53788 24.6997 5.59121 24.4064 5.67121 24.1197C5.87121 23.3264 6.18454 22.5664 6.59788 21.873C6.82454 21.4797 7.07788 21.0997 7.37121 20.7464C7.37788 20.7264 7.39788 20.7064 7.41788 20.693C7.41121 20.6864 7.41788 20.6864 7.41788 20.6864C7.50454 20.573 7.59788 20.4664 7.69121 20.3664C7.69121 20.3597 7.69121 20.3597 7.69121 20.3597C7.96454 20.0664 8.24454 19.7864 8.55121 19.5264C8.65788 19.4397 8.75788 19.353 8.87121 19.2664C8.89121 19.2464 8.91121 19.233 8.93788 19.213C10.4379 18.0664 12.3112 17.373 14.3312 17.373C16.6245 17.373 18.7112 18.233 20.2912 19.6464C21.0512 20.333 21.6979 21.153 22.1845 22.0664C22.2245 22.133 22.2645 22.2064 22.2979 22.2797C22.3579 22.3997 22.4179 22.5264 22.4712 22.6597C22.6912 23.1397 22.8645 23.6464 22.9845 24.1664C22.9979 24.2197 23.0112 24.273 23.0245 24.3264C23.0779 24.573 23.1245 24.8264 23.1579 25.0797C23.2112 25.473 23.2379 25.873 23.2379 26.2797Z" fill="#FF9800"/>
<path d="M21.8653 26.2802C21.8653 26.4136 21.8587 26.5602 21.852 26.7136C21.8387 26.9602 21.8187 27.2269 21.7853 27.5002C21.772 27.6669 21.7453 27.8336 21.7187 28.0002H18.0653L17.3587 27.8869L14.5987 27.4469L14.2053 27.3869L13.3053 27.2402C12.912 27.2402 12.0587 27.4136 11.1587 27.5802C10.6853 27.6669 10.2053 27.7602 9.77199 27.8202C9.71866 27.8269 9.66533 27.8336 9.61866 27.8402H9.61199C9.14533 27.7402 8.69199 27.5869 8.26533 27.3869C8.13199 27.3269 7.99866 27.2602 7.86533 27.1869C7.49199 26.9802 7.13199 26.7336 6.80533 26.4602C6.79866 26.3802 6.79199 26.3136 6.79199 26.2802C6.79199 26.1069 6.79866 25.9402 6.81199 25.7736C6.83866 25.3469 6.89866 24.9336 6.99199 24.5336C7.13866 23.9269 7.35199 23.3402 7.63866 22.8002C7.69199 22.6869 7.75199 22.5736 7.81866 22.4669C7.84533 22.4136 7.87866 22.3669 7.90533 22.3136C8.02533 22.1202 8.15866 21.9336 8.29199 21.7469C8.57199 21.3802 8.88533 21.0336 9.21866 20.7202C9.22533 20.7202 9.22533 20.7202 9.22533 20.7202C9.25199 20.6936 9.27866 20.6669 9.30533 20.6469C9.33866 20.6202 9.36533 20.5869 9.39866 20.5669C9.53199 20.4469 9.66533 20.3402 9.80533 20.2402C9.80533 20.2336 9.81199 20.2336 9.81199 20.2336C11.072 19.2936 12.632 18.7402 14.332 18.7402C15.652 18.7402 16.8787 19.0736 17.952 19.6602H17.9587C18.8787 20.1669 19.6787 20.8536 20.312 21.6802C20.5587 22.0002 20.7787 22.3402 20.9653 22.7002H20.972C21.0053 22.7669 21.0387 22.8336 21.072 22.9002C21.272 23.2936 21.432 23.7069 21.552 24.1336H21.5587C21.5653 24.1669 21.5787 24.2002 21.5853 24.2336C21.6653 24.5202 21.732 24.8136 21.7787 25.1136C21.7853 25.1736 21.792 25.2402 21.7987 25.3002C21.8453 25.6202 21.8653 25.9469 21.8653 26.2802Z" fill="#FFC107"/>
<path d="M20.5003 26.2066C20.5003 26.3133 20.5003 26.4266 20.487 26.5333V26.5399C20.487 26.5466 20.487 26.5466 20.487 26.5466C20.4737 27.0266 20.407 27.4999 20.3003 27.9266C20.3003 27.9533 20.2937 27.9733 20.2803 27.9999H17.167L14.6003 27.4466L14.2603 27.3733L14.207 27.3866L11.3603 27.9733L11.2337 27.9999H11.0537C10.627 27.9999 10.207 27.9599 9.80033 27.8799C9.74033 27.8666 9.68033 27.8533 9.62033 27.8399H9.61366C9.14699 27.7399 8.69366 27.5866 8.26699 27.3866C8.25366 27.3133 8.24033 27.2399 8.23366 27.1666C8.18699 26.8799 8.16699 26.5799 8.16699 26.2799C8.16699 26.1666 8.16699 26.0533 8.17366 25.9399C8.19366 25.5799 8.24699 25.2266 8.32699 24.8866C8.38033 24.6333 8.45366 24.3866 8.54033 24.1533C8.61366 23.9466 8.70033 23.7466 8.79366 23.5533C8.87366 23.3866 8.96699 23.2266 9.06033 23.0666C9.15366 22.9133 9.25366 22.7666 9.36033 22.6199C9.62699 22.2533 9.94033 21.9133 10.287 21.6133C10.487 21.4399 10.707 21.2733 10.9337 21.1266C11.907 20.4866 13.0737 20.1133 14.3337 20.1133C14.5803 20.1133 14.8203 20.1266 15.0537 20.1599H15.067C15.7803 20.2399 16.447 20.4399 17.0603 20.7399C17.067 20.7399 17.067 20.7399 17.067 20.7399C18.0337 21.2133 18.8537 21.9266 19.4537 22.8066C19.5537 22.9533 19.6537 23.1133 19.7403 23.2733C19.8137 23.3999 19.8803 23.5333 19.9403 23.6666C20.0337 23.8733 20.1203 24.0933 20.1937 24.3133H20.2003C20.2737 24.5599 20.3403 24.8066 20.387 25.0666V25.0733C20.4603 25.4399 20.5003 25.8199 20.5003 26.2066Z" fill="#FFD54F"/>
<path d="M19.1275 26.3469V26.3669C19.1275 26.7602 19.0808 27.1469 18.9875 27.5269C18.9542 27.6869 18.9075 27.8469 18.8475 28.0002H15.8608L14.3342 27.5802L12.8075 28.0002H11.0542C10.6275 28.0002 10.2075 27.9602 9.80085 27.8802C9.78751 27.8602 9.78085 27.8402 9.77418 27.8202C9.68085 27.5335 9.60751 27.2469 9.57418 26.9469C9.54751 26.7535 9.53418 26.5535 9.53418 26.3469C9.53418 26.2669 9.53418 26.1802 9.54751 26.1002C9.55418 25.7869 9.60085 25.4802 9.68085 25.1869C9.72085 24.9869 9.78085 24.7935 9.86085 24.6069C9.88751 24.5135 9.92751 24.4269 9.97418 24.3402C10.0742 24.1135 10.1942 23.8935 10.3275 23.6802C10.4742 23.4669 10.6342 23.2669 10.8142 23.0802C11.0275 22.8402 11.2675 22.6202 11.5408 22.4402C12.0075 22.1002 12.5408 21.8469 13.1208 21.7069C13.5075 21.6002 13.9142 21.5469 14.3342 21.5469C15.6675 21.5469 16.8608 22.0802 17.7275 22.9402C17.7608 22.9735 17.8008 23.0135 17.8342 23.0602H17.8408C17.9342 23.1602 18.0208 23.2602 18.1075 23.3735C18.3542 23.6869 18.5608 24.0269 18.7208 24.4002C18.8008 24.5735 18.8675 24.7535 18.9208 24.9402C18.9275 24.9669 18.9342 24.9869 18.9408 25.0135C19.0342 25.3402 19.0942 25.6802 19.1075 26.0335C19.1208 26.1335 19.1275 26.2402 19.1275 26.3469Z" fill="#FFE082"/>
<path d="M17.7586 26.3466C17.7586 26.6199 17.7253 26.8799 17.6519 27.1266C17.5853 27.3933 17.4853 27.6466 17.3586 27.8866C17.3386 27.9266 17.2919 27.9999 17.2919 27.9999H11.3719C11.3653 27.9933 11.3586 27.9799 11.3586 27.9733C11.2786 27.8466 11.2119 27.7199 11.1586 27.5799C11.0253 27.2733 10.9453 26.9399 10.9186 26.5933C10.9053 26.5133 10.9053 26.4266 10.9053 26.3466C10.9053 26.3066 10.9053 26.2599 10.9119 26.2199C10.9186 25.9266 10.9586 25.6466 11.0386 25.3866C11.1053 25.1466 11.1919 24.9266 11.3053 24.7133C11.3053 24.7133 11.3119 24.7066 11.3119 24.6999C11.3919 24.5599 11.4786 24.4199 11.5786 24.2866C11.9053 23.8466 12.3386 23.4866 12.8386 23.2533C12.8453 23.2533 12.8453 23.2533 12.8453 23.2533C13.0053 23.1733 13.1719 23.1066 13.3453 23.0599C13.3453 23.0599 13.3453 23.0599 13.3519 23.0599C13.6586 22.9666 13.9919 22.9199 14.3319 22.9199C14.7253 22.9199 15.1053 22.9799 15.4519 23.1066C15.5786 23.1399 15.6986 23.1933 15.8186 23.2533C15.8186 23.2533 15.8186 23.2533 15.8253 23.2533C16.3986 23.5266 16.8853 23.9533 17.2186 24.4866C17.2853 24.5866 17.3453 24.6933 17.3986 24.8066C17.4253 24.8533 17.4519 24.9066 17.4719 24.9533C17.6253 25.2999 17.7186 25.6799 17.7453 26.0799C17.7519 26.1133 17.7519 26.1466 17.7519 26.1866C17.7586 26.2399 17.7586 26.2933 17.7586 26.3466Z" fill="#FFECB3"/>
<path d="M20.3844 7.33398H12.3844C9.78444 7.33398 7.71777 9.40065 7.71777 12.0007V20.0007C7.71777 22.6007 9.78444 24.6673 12.3844 24.6673H20.3844C22.9844 24.6673 25.0511 22.6007 25.0511 20.0007V12.0007C25.0511 9.40065 22.9844 7.33398 20.3844 7.33398Z" stroke="white" stroke-miterlimit="10" stroke-linecap="round" stroke-linejoin="round"/>
<path d="M21.0524 11.3333C21.4206 11.3333 21.7191 11.0349 21.7191 10.6667C21.7191 10.2985 21.4206 10 21.0524 10C20.6842 10 20.3857 10.2985 20.3857 10.6667C20.3857 11.0349 20.6842 11.3333 21.0524 11.3333Z" fill="white"/>
<path d="M16.3857 20C18.5949 20 20.3857 18.2091 20.3857 16C20.3857 13.7909 18.5949 12 16.3857 12C14.1766 12 12.3857 13.7909 12.3857 16C12.3857 18.2091 14.1766 20 16.3857 20Z" stroke="white" stroke-miterlimit="10" stroke-linecap="round" stroke-linejoin="round"/>
</svg>
