<svg width="85" height="17" viewBox="0 0 85 17" fill="none" xmlns="http://www.w3.org/2000/svg">
<g id="logo_lp_national_wh 1" clip-path="url(#clip0_26_91089)">
<path id="Vector" fill-rule="evenodd" clip-rule="evenodd" d="M71.5551 13.1717L71.36 13.0111C70.8862 12.6229 70.8026 11.9134 71.2346 11.4583L76.3067 5.8898C76.7108 5.43468 77.4493 5.35437 77.9231 5.76933L78.1182 5.92996C78.5919 6.31815 78.6756 7.02759 78.2436 7.48271L73.1715 13.0512C72.7674 13.5063 72.0567 13.5599 71.5551 13.1717Z" fill="url(#paint0_linear_26_91089)"/>
<path id="Vector_2" opacity="0.4" fill-rule="evenodd" clip-rule="evenodd" d="M77.293 8.52675L77.502 8.29919C77.516 8.27242 77.5438 8.24564 77.5578 8.21887C77.3348 8.45982 77.098 8.71415 76.875 8.96848C77.0422 8.79446 77.1816 8.64722 77.293 8.52675Z" fill="url(#paint1_radial_26_91089)"/>
<path id="Vector_3" fill-rule="evenodd" clip-rule="evenodd" d="M78.2709 6.06378L73.1988 0.495268C72.7947 0.04015 72.0562 -0.0401649 71.5824 0.374795L71.3873 0.535425C70.9136 0.923614 70.8299 1.63307 71.2619 2.08819L75.5398 6.74646L75.6373 6.85354C76.9054 8.07165 76.4734 9.27636 76.1529 9.78504C76.4037 9.50394 76.6545 9.22283 76.8914 8.9685C77.1144 8.71417 77.3513 8.45984 77.5742 8.2189C77.7972 7.97795 78.0062 7.75039 78.1455 7.60315C78.6332 7.14803 78.7029 6.5189 78.2709 6.06378Z" fill="url(#paint2_linear_26_91089)"/>
<path id="Vector_4" fill-rule="evenodd" clip-rule="evenodd" d="M77.9926 13.1717L77.7975 13.0111C77.3237 12.6229 77.2401 11.9134 77.6721 11.4583L82.7442 5.8898C83.1483 5.43468 83.8868 5.35437 84.3606 5.76933L84.5557 5.92996C85.0294 6.31815 85.1131 7.02759 84.6811 7.48271L79.609 13.0512C79.2049 13.5063 78.4942 13.5599 77.9926 13.1717Z" fill="url(#paint3_linear_26_91089)"/>
<path id="Vector_5" opacity="0.4" fill-rule="evenodd" clip-rule="evenodd" d="M83.7188 8.52675L83.9278 8.29919C83.9418 8.27242 83.9696 8.24564 83.9836 8.21887C83.7606 8.45982 83.5237 8.71415 83.3008 8.96848C83.468 8.79446 83.6213 8.64722 83.7188 8.52675Z" fill="url(#paint4_radial_26_91089)"/>
<path id="Vector_6" fill-rule="evenodd" clip-rule="evenodd" d="M84.6928 6.06378L79.6207 0.495268C79.2166 0.04015 78.478 -0.0401649 78.0043 0.374795L77.8092 0.535425C77.3354 0.923614 77.2518 1.63307 77.6838 2.08819L81.9617 6.74646L82.0592 6.85354C83.3272 8.07165 82.8953 9.27636 82.5748 9.78504C82.8256 9.50394 83.0764 9.22283 83.3133 8.9685C83.5363 8.71417 83.7731 8.45984 83.9961 8.2189C84.219 7.97795 84.4281 7.75039 84.5674 7.60315C85.0551 7.14803 85.1248 6.5189 84.6928 6.06378Z" fill="url(#paint5_linear_26_91089)"/>
<path id="Vector_7" fill-rule="evenodd" clip-rule="evenodd" d="M0.32023 13.1181C0.125147 12.9307 0.0136719 12.6496 0.0136719 12.3016V1.28505C0.0136719 0.92363 0.125147 0.642528 0.362033 0.414968C0.598918 0.187409 0.891541 0.0803223 1.26777 0.0803223C1.644 0.0803223 1.97843 0.187409 2.20138 0.414968C2.43827 0.642528 2.54974 0.92363 2.54974 1.28505V11.4449H8.02597C8.8063 11.4449 9.2104 11.7795 9.2104 12.4354C9.2104 13.0914 8.8063 13.426 8.02597 13.426H1.1981C0.821869 13.426 0.529246 13.3189 0.32023 13.1181Z" fill="white"/>
<path id="Vector_8" fill-rule="evenodd" clip-rule="evenodd" d="M11.1902 13.1984C10.9533 12.9708 10.8418 12.6763 10.8418 12.3015V1.27162C10.8418 0.910202 10.9533 0.629099 11.1902 0.40154C11.427 0.173981 11.7197 0.0668945 12.0959 0.0668945C12.4721 0.0668945 12.8066 0.173981 13.0295 0.40154C13.2664 0.629099 13.3779 0.910202 13.3779 1.27162V12.3015C13.3779 12.663 13.2664 12.9708 13.0295 13.1984C12.7926 13.4259 12.4861 13.533 12.0959 13.533C11.7336 13.533 11.427 13.4259 11.1902 13.1984Z" fill="white"/>
<path id="Vector_9" fill-rule="evenodd" clip-rule="evenodd" d="M27.869 15.9291C27.869 15.7016 27.7854 15.4874 27.6461 15.2598L26.9493 14.2559C26.5452 13.6268 26.0575 13.1984 25.4584 13.011C26.6149 12.5157 27.5067 11.7394 28.1198 10.6685C28.7469 9.611 29.0534 8.31258 29.0534 6.82675C29.0534 5.44801 28.7887 4.24329 28.2592 3.22597C27.7297 2.22203 26.9772 1.43226 25.9879 0.870063C25.0125 0.33463 23.842 0.0535278 22.5182 0.0535278C21.1666 0.0535278 20.01 0.307858 19.0207 0.870063C18.0452 1.43226 17.2788 2.20864 16.7493 3.22597C16.2338 4.25667 15.9551 5.44801 15.9551 6.82675C15.9551 8.19211 16.2198 9.39683 16.7493 10.4275C17.2788 11.4315 18.0313 12.2212 19.0207 12.7834C20.01 13.3189 21.1666 13.6 22.5182 13.6C22.992 13.6 23.3682 13.6803 23.6608 13.8142C23.9534 13.948 24.1903 14.1622 24.3715 14.4567L25.5141 16.2771C25.6534 16.4779 25.8346 16.6386 26.0297 16.7456C26.2387 16.8527 26.4616 16.9063 26.6985 16.9063C27.0051 16.9063 27.2838 16.7992 27.5207 16.6252C27.7575 16.4512 27.869 16.2102 27.869 15.9291ZM26.5313 6.79998C26.5313 8.35274 26.169 9.55746 25.4584 10.4008C24.7477 11.2441 23.7584 11.659 22.4903 11.659C21.2223 11.659 20.219 11.2441 19.5084 10.4008C18.7977 9.55746 18.4354 8.37951 18.4354 6.79998C18.4354 5.22045 18.7977 4.0425 19.5084 3.19919C20.219 2.36927 21.2084 1.95431 22.4903 1.95431C23.7723 1.95431 24.7477 2.35589 25.4584 3.19919C26.169 4.0425 26.5313 5.22045 26.5313 6.79998Z" fill="white"/>
<path id="Vector_10" fill-rule="evenodd" clip-rule="evenodd" d="M31.7695 12.3016C31.7695 12.6764 31.881 12.9709 32.1179 13.1984C32.3269 13.426 32.6474 13.5331 33.0236 13.5464C33.4138 13.5464 33.7204 13.4394 33.9572 13.2118C34.1941 12.9976 34.3056 12.7031 34.3056 12.3149V8.27243H37.8031C39.2802 8.27243 40.4228 7.92441 41.2449 7.20156C42.0671 6.49211 42.4851 5.48818 42.4851 4.21652C42.4851 2.94487 42.0671 1.94093 41.2449 1.24488C40.4228 0.522043 39.2802 0.174011 37.8031 0.174011H32.9958C32.6195 0.174011 32.3269 0.281098 32.104 0.468499C31.881 0.669287 31.7695 0.950389 31.7695 1.31181V12.3016ZM40.0884 4.2433C40.0884 5.68896 39.2105 6.42519 37.4826 6.42519L34.3056 6.4118V2.06141H37.4826C39.2105 2.06141 40.0884 2.79763 40.0884 4.2433Z" fill="white"/>
<path id="Vector_11" fill-rule="evenodd" clip-rule="evenodd" d="M55.4595 13.1984C55.6963 12.9842 55.8218 12.7433 55.8218 12.4622C55.8218 12.2882 55.7799 12.1409 55.7242 11.9669L50.3037 0.816519C50.1783 0.562189 49.9972 0.374787 49.7603 0.240929C49.5234 0.120457 49.2726 0.0535278 48.9939 0.0535278C48.7152 0.0535278 48.4644 0.107071 48.2275 0.240929C47.9767 0.374787 47.7955 0.575575 47.684 0.816519L42.2775 11.9669C42.2078 12.1275 42.166 12.3016 42.166 12.4622C42.166 12.7567 42.2775 13.011 42.5283 13.1984C42.7652 13.3858 43.0578 13.4929 43.3504 13.4929C43.5734 13.4929 43.7685 13.4394 43.9496 13.3323C44.1308 13.2252 44.2701 13.0645 44.3816 12.837L45.566 10.3205H52.4218L53.6062 12.837C53.7037 13.0512 53.857 13.2252 54.0381 13.3323C54.2193 13.4394 54.4283 13.4929 54.6234 13.4929C54.9439 13.4929 55.2226 13.3858 55.4595 13.1984ZM51.5857 8.44644H46.416L48.9939 2.87793L51.5857 8.44644Z" fill="white"/>
<path id="Vector_12" fill-rule="evenodd" clip-rule="evenodd" d="M65.5751 0.0802804C65.8677 0.0802804 66.1325 0.187367 66.3694 0.414926C66.6062 0.642485 66.7177 0.88343 66.7177 1.20469C66.7177 1.44563 66.6202 1.69997 66.4251 1.92752L61.98 7.13461V12.3417C61.98 12.7299 61.8685 13.0244 61.6317 13.2519C61.3948 13.4795 61.1021 13.5732 60.7399 13.5732C60.3636 13.5732 60.0431 13.4661 59.8062 13.2519C59.5694 13.0378 59.4579 12.7433 59.4579 12.3417V7.13461L55.0407 1.91414C54.8456 1.68658 54.748 1.44563 54.748 1.1913C54.748 0.896816 54.8595 0.629099 55.0964 0.40154C55.3333 0.173981 55.612 0.0668945 55.8907 0.0668945C56.2251 0.0668945 56.4899 0.200753 56.7267 0.481855L60.7259 5.24721L64.7112 0.481855C64.948 0.214139 65.2407 0.0802804 65.5751 0.0802804Z" fill="white"/>
</g>
<defs>
<linearGradient id="paint0_linear_26_91089" x1="73.1393" y1="14.9097" x2="80.0682" y2="11.4126" gradientUnits="userSpaceOnUse">
<stop stop-color="#FFE81D"/>
<stop offset="0.7072" stop-color="#E89D2C"/>
</linearGradient>
<radialGradient id="paint1_radial_26_91089" cx="0" cy="0" r="1" gradientUnits="userSpaceOnUse" gradientTransform="translate(74.4981 9.22266) scale(3.39745 3.72996)">
<stop offset="0.4185" stop-color="#123F06" stop-opacity="0.01"/>
<stop offset="1" stop-color="#123F06"/>
</radialGradient>
<linearGradient id="paint2_linear_26_91089" x1="69.9331" y1="4.92004" x2="77.265" y2="10.8079" gradientUnits="userSpaceOnUse">
<stop offset="0.0937643" stop-color="#1FAEFF"/>
<stop offset="1" stop-color="#0D7CFF"/>
</linearGradient>
<linearGradient id="paint3_linear_26_91089" x1="79.5768" y1="14.9097" x2="86.5057" y2="11.4126" gradientUnits="userSpaceOnUse">
<stop stop-color="#FFE81D"/>
<stop offset="0.7072" stop-color="#E89D2C"/>
</linearGradient>
<radialGradient id="paint4_radial_26_91089" cx="0" cy="0" r="1" gradientUnits="userSpaceOnUse" gradientTransform="translate(80.9295 9.22266) scale(3.39749 3.72996)">
<stop offset="0.4185" stop-color="#123F06" stop-opacity="0.01"/>
<stop offset="1" stop-color="#123F06"/>
</radialGradient>
<linearGradient id="paint5_linear_26_91089" x1="76.355" y1="4.92004" x2="83.6869" y2="10.8079" gradientUnits="userSpaceOnUse">
<stop offset="0.0937643" stop-color="#1FAEFF"/>
<stop offset="1" stop-color="#0D7CFF"/>
</linearGradient>
<clipPath id="clip0_26_91089">
<rect width="85" height="17" fill="white"/>
</clipPath>
</defs>
</svg>
