<svg width="26" height="30" viewBox="0 0 26 30" fill="none" xmlns="http://www.w3.org/2000/svg">
<path id="Vector" d="M21.4854 5.18076C23.6885 7.3836 24.9485 10.3569 24.999 13.472C25.0496 16.587 23.8866 19.5996 21.7561 21.8728L21.4854 22.1528L15.8281 27.8088C15.1102 28.5261 14.1466 28.9438 13.1323 28.9773C12.118 29.0107 11.1289 28.6573 10.3654 27.9888L10.1734 27.8088L4.51474 22.1514C2.26429 19.901 1 16.8487 1 13.6661C1 10.4835 2.26429 7.43121 4.51474 5.18076C6.76519 2.93031 9.81746 1.66602 13.0001 1.66602C16.1827 1.66602 19.235 2.93031 21.4854 5.18076ZM13.0001 9.66609C12.4748 9.66609 11.9546 9.76955 11.4693 9.97057C10.984 10.1716 10.5431 10.4662 10.1716 10.8377C9.80021 11.2091 9.50557 11.6501 9.30456 12.1354C9.10354 12.6207 9.00007 13.1408 9.00007 13.6661C9.00007 14.1914 9.10354 14.7115 9.30456 15.1968C9.50557 15.6821 9.80021 16.1231 10.1716 16.4945C10.5431 16.866 10.984 17.1606 11.4693 17.3616C11.9546 17.5626 12.4748 17.6661 13.0001 17.6661C14.0609 17.6661 15.0784 17.2447 15.8285 16.4945C16.5786 15.7444 17.0001 14.727 17.0001 13.6661C17.0001 12.6052 16.5786 11.5878 15.8285 10.8377C15.0784 10.0875 14.0609 9.66609 13.0001 9.66609Z" stroke="#00B598" stroke-width="2" stroke-linecap="round" stroke-linejoin="round"/>
</svg>
