<svg width="33" height="32" viewBox="0 0 33 32" fill="none" xmlns="http://www.w3.org/2000/svg">
<g id="mail 1" clip-path="url(#clip0_2826_36202)">
<path id="Vector" d="M4.38574 9.33317C4.38574 8.62593 4.66669 7.94765 5.16679 7.44755C5.66689 6.94746 6.34516 6.6665 7.05241 6.6665H25.7191C26.4263 6.6665 27.1046 6.94746 27.6047 7.44755C28.1048 7.94765 28.3857 8.62593 28.3857 9.33317V22.6665C28.3857 23.3738 28.1048 24.052 27.6047 24.5521C27.1046 25.0522 26.4263 25.3332 25.7191 25.3332H7.05241C6.34516 25.3332 5.66689 25.0522 5.16679 24.5521C4.66669 24.052 4.38574 23.3738 4.38574 22.6665V9.33317Z" stroke="#2E2E2E" stroke-linecap="round" stroke-linejoin="round"/>
<path id="Vector_2" d="M4.38574 9.3335L16.3857 17.3335L28.3857 9.3335" stroke="#2E2E2E" stroke-linecap="round" stroke-linejoin="round"/>
</g>
<defs>
<clipPath id="clip0_2826_36202">
<rect width="32" height="32" fill="white" transform="translate(0.385742)"/>
</clipPath>
</defs>
</svg>
