<svg width="32" height="32" viewBox="0 0 32 32" fill="none" xmlns="http://www.w3.org/2000/svg">
<g clip-path="url(#clip0_1_48103)">
<path d="M7.33302 4C8.09571 3.99992 8.84679 4.18677 9.52053 4.54419C10.1943 4.90162 10.7702 5.41873 11.1978 6.05027C11.6254 6.68181 11.8917 7.40853 11.9734 8.16682C12.055 8.92512 11.9496 9.69188 11.6664 10.4C10.3873 11.0713 9.28109 12.0297 8.43436 13.2C7.79304 13.3567 7.12578 13.3755 6.47665 13.2552C5.82753 13.135 5.2113 12.8783 4.66869 12.5023C4.12608 12.1263 3.66942 11.6394 3.32889 11.0738C2.98836 10.5082 2.77171 9.87685 2.69324 9.22135C2.61477 8.56586 2.67627 7.90117 2.87368 7.2712C3.07109 6.64123 3.39992 6.06032 3.83844 5.56683C4.27697 5.07334 4.8152 4.67851 5.4176 4.40842C6.02 4.13833 6.67285 3.99913 7.33302 4Z" stroke="#6F40DD" stroke-linecap="round" stroke-linejoin="round"/>
<path d="M24.6666 4C25.3259 4.00067 25.9775 4.14101 26.5786 4.41177C27.1796 4.68254 27.7165 5.07757 28.1538 5.57087C28.5912 6.06416 28.919 6.64452 29.1158 7.2737C29.3126 7.90289 29.3738 8.56663 29.2955 9.22119C29.2171 9.87576 29.001 10.5063 28.6613 11.0713C28.3216 11.6363 27.8661 12.1229 27.3247 12.499C26.7833 12.8752 26.1684 13.1324 25.5204 13.2537C24.8724 13.375 24.2061 13.3576 23.5653 13.2027C22.7192 12.0308 21.6129 11.071 20.3333 10.3987C20.0503 9.69061 19.9451 8.92399 20.0269 8.16588C20.1088 7.40777 20.3751 6.68125 20.8027 6.04989C21.2303 5.41853 21.806 4.90156 22.4796 4.54421C23.1532 4.18685 23.9041 4 24.6666 4Z" stroke="#6F40DD" stroke-linecap="round" stroke-linejoin="round"/>
<path d="M6.66406 18.6673C6.66406 19.893 6.90548 21.1067 7.37452 22.239C7.84356 23.3714 8.53105 24.4003 9.39773 25.267C10.2644 26.1337 11.2933 26.8211 12.4257 27.2902C13.5581 27.7592 14.7717 28.0006 15.9974 28.0006C17.2231 28.0006 18.4367 27.7592 19.5691 27.2902C20.7015 26.8211 21.7304 26.1337 22.5971 25.267C23.4637 24.4003 24.1512 23.3714 24.6203 22.239C25.0893 21.1067 25.3307 19.893 25.3307 18.6673C25.3307 17.4416 25.0893 16.228 24.6203 15.0956C24.1512 13.9632 23.4637 12.9343 22.5971 12.0677C21.7304 11.201 20.7015 10.5135 19.5691 10.0444C18.4367 9.5754 17.2231 9.33398 15.9974 9.33398C14.7717 9.33398 13.5581 9.5754 12.4257 10.0444C11.2933 10.5135 10.2644 11.201 9.39773 12.0677C8.53105 12.9343 7.84356 13.9632 7.37452 15.0956C6.90548 16.228 6.66406 17.4416 6.66406 18.6673Z" stroke="#6F40DD" stroke-linecap="round" stroke-linejoin="round"/>
</g>
<defs>
<clipPath id="clip0_1_48103">
<rect width="32" height="32" fill="white"/>
</clipPath>
</defs>
</svg>
