<svg width="18" height="20" viewBox="0 0 18 20" fill="none" xmlns="http://www.w3.org/2000/svg">
<g id="Group 2034">
<path id="Vector" d="M1 5.00018H17" stroke="#00B598" stroke-linecap="round" stroke-linejoin="round"/>
<path id="Vector_2" d="M7 8.99997V15" stroke="#00B598" stroke-linecap="round" stroke-linejoin="round"/>
<path id="Vector_3" d="M11 8.99997V15" stroke="#00B598" stroke-linecap="round" stroke-linejoin="round"/>
<path id="Vector_4" d="M2 5.00018L3 17.0002C3 17.5306 3.21071 18.0393 3.58579 18.4144C3.96086 18.7895 4.46957 19.0002 5 19.0002H13C13.5304 19.0002 14.0391 18.7895 14.4142 18.4144C14.7893 18.0393 15 17.5306 15 17.0002L16 5.00018" stroke="#00B598" stroke-linecap="round" stroke-linejoin="round"/>
<path id="Vector_5" d="M6 5V2C6 1.73478 6.10536 1.48043 6.29289 1.29289C6.48043 1.10536 6.73478 1 7 1H11C11.2652 1 11.5196 1.10536 11.7071 1.29289C11.8946 1.48043 12 1.73478 12 2V5" stroke="#00B598" stroke-linecap="round" stroke-linejoin="round"/>
</g>
</svg>
