<svg width="116" height="116" viewBox="0 0 116 116" fill="none" xmlns="http://www.w3.org/2000/svg">
<g id="truck-loading 2" clip-path="url(#clip0_26_82356)">
<path id="Vector" d="M9.66797 14.5H14.5013C17.0651 14.5 19.5238 15.5184 21.3367 17.3313C23.1495 19.1442 24.168 21.6029 24.168 24.1667V72.5C24.168 75.0638 25.1864 77.5225 26.9993 79.3354C28.8121 81.1482 31.2709 82.1667 33.8346 82.1667H106.335" stroke="#00B598" stroke-width="2" stroke-linecap="round" stroke-linejoin="round"/>
<path id="Vector_2" d="M43.5 43.5C43.5 39.6544 45.0277 35.9662 47.7469 33.247C50.4662 30.5277 54.1544 29 58 29H77.3333C81.179 29 84.8671 30.5277 87.5864 33.247C90.3057 35.9662 91.8333 39.6544 91.8333 43.5V53.1667C91.8333 57.0123 90.3057 60.7004 87.5864 63.4197C84.8671 66.139 81.179 67.6667 77.3333 67.6667H58C54.1544 67.6667 50.4662 66.139 47.7469 63.4197C45.0277 60.7004 43.5 57.0123 43.5 53.1667V43.5Z" stroke="#00B598" stroke-width="2" stroke-linecap="round" stroke-linejoin="round"/>
<path id="Vector_3" d="M33.832 91.8334C33.832 94.3972 34.8505 96.8559 36.6633 98.6688C38.4762 100.482 40.9349 101.5 43.4987 101.5C46.0625 101.5 48.5212 100.482 50.3341 98.6688C52.1469 96.8559 53.1654 94.3972 53.1654 91.8334C53.1654 89.2697 52.1469 86.8109 50.3341 84.9981C48.5212 83.1852 46.0625 82.1667 43.4987 82.1667C40.9349 82.1667 38.4762 83.1852 36.6633 84.9981C34.8505 86.8109 33.832 89.2697 33.832 91.8334Z" stroke="#00B598" stroke-width="2" stroke-linecap="round" stroke-linejoin="round"/>
<path id="Vector_4" d="M77.332 91.8334C77.332 94.3972 78.3505 96.8559 80.1633 98.6688C81.9762 100.482 84.4349 101.5 86.9987 101.5C89.5625 101.5 92.0212 100.482 93.8341 98.6688C95.6469 96.8559 96.6654 94.3972 96.6654 91.8334C96.6654 89.2697 95.6469 86.8109 93.8341 84.9981C92.0212 83.1852 89.5625 82.1667 86.9987 82.1667C84.4349 82.1667 81.9762 83.1852 80.1633 84.9981C78.3505 86.8109 77.332 89.2697 77.332 91.8334Z" stroke="#00B598" stroke-width="2" stroke-linecap="round" stroke-linejoin="round"/>
</g>
<defs>
<clipPath id="clip0_26_82356">
<rect width="116" height="116" fill="white"/>
</clipPath>
</defs>
</svg>
