<svg width="116" height="116" viewBox="0 0 116 116" fill="none" xmlns="http://www.w3.org/2000/svg">
<g id="truck-delivery 2" clip-path="url(#clip0_26_82351)">
<path id="Vector" d="M24.168 82.1667C24.168 84.7304 25.1864 87.1892 26.9993 89.002C28.8121 90.8149 31.2709 91.8333 33.8346 91.8333C36.3984 91.8333 38.8571 90.8149 40.67 89.002C42.4829 87.1892 43.5013 84.7304 43.5013 82.1667C43.5013 79.6029 42.4829 77.1442 40.67 75.3313C38.8571 73.5185 36.3984 72.5 33.8346 72.5C31.2709 72.5 28.8121 73.5185 26.9993 75.3313C25.1864 77.1442 24.168 79.6029 24.168 82.1667Z" stroke="#00B598" stroke-width="2" stroke-linecap="round" stroke-linejoin="round"/>
<path id="Vector_2" d="M72.5 82.1667C72.5 84.7304 73.5185 87.1892 75.3313 89.002C77.1442 90.8149 79.6029 91.8333 82.1667 91.8333C84.7304 91.8333 87.1892 90.8149 89.002 89.002C90.8149 87.1892 91.8333 84.7304 91.8333 82.1667C91.8333 79.6029 90.8149 77.1442 89.002 75.3313C87.1892 73.5185 84.7304 72.5 82.1667 72.5C79.6029 72.5 77.1442 73.5185 75.3313 75.3313C73.5185 77.1442 72.5 79.6029 72.5 82.1667Z" stroke="#00B598" stroke-width="2" stroke-linecap="round" stroke-linejoin="round"/>
<path id="Vector_3" d="M24.168 82.1666H14.5013V62.8333M9.66797 24.1666H62.8346V82.1666M43.5013 82.1666H72.5013M91.8346 82.1666H101.501V53.1666M101.501 53.1666H62.8346M101.501 53.1666L87.0013 29H62.8346" stroke="#00B598" stroke-width="2" stroke-linecap="round" stroke-linejoin="round"/>
<path id="Vector_4" d="M14.5 43.5H33.8333" stroke="#00B598" stroke-width="2" stroke-linecap="round" stroke-linejoin="round"/>
</g>
<defs>
<clipPath id="clip0_26_82351">
<rect width="116" height="116" fill="white"/>
</clipPath>
</defs>
</svg>
