<svg width="32" height="32" viewBox="0 0 32 32" fill="none" xmlns="http://www.w3.org/2000/svg">
<path d="M11.5 10C11.5 11.3261 12.0268 12.5979 12.9645 13.5355C13.9021 14.4732 15.1739 15 16.5 15C17.8261 15 19.0979 14.4732 20.0355 13.5355C20.9732 12.5979 21.5 11.3261 21.5 10C21.5 8.67392 20.9732 7.40215 20.0355 6.46447C19.0979 5.52678 17.8261 5 16.5 5C15.1739 5 13.9021 5.52678 12.9645 6.46447C12.0268 7.40215 11.5 8.67392 11.5 10Z" stroke="#6F40DD" stroke-linecap="round" stroke-linejoin="round"/>
<path d="M9 27.5V25C9 23.6739 9.52678 22.4021 10.4645 21.4645C11.4021 20.5268 12.6739 20 14 20H19C20.3261 20 21.5979 20.5268 22.5355 21.4645C23.4732 22.4021 24 23.6739 24 25V27.5" stroke="#6F40DD" stroke-linecap="round" stroke-linejoin="round"/>
</svg>
