<svg width="116" height="116" viewBox="0 0 116 116" fill="none" xmlns="http://www.w3.org/2000/svg">
<g id="wallet 1" clip-path="url(#clip0_26_82338)">
<path id="Vector" d="M82.1654 38.6666V24.1666C82.1654 22.8847 81.6561 21.6553 80.7497 20.7489C79.8433 19.8425 78.6139 19.3333 77.332 19.3333H28.9987C26.4349 19.3333 23.9762 20.3517 22.1633 22.1646C20.3505 23.9774 19.332 26.4362 19.332 28.9999M19.332 28.9999C19.332 31.5637 20.3505 34.0224 22.1633 35.8353C23.9762 37.6481 26.4349 38.6666 28.9987 38.6666H86.9987C88.2806 38.6666 89.51 39.1758 90.4164 40.0822C91.3228 40.9887 91.832 42.218 91.832 43.4999V57.9999M19.332 28.9999V86.9999C19.332 89.5637 20.3505 92.0224 22.1633 93.8353C23.9762 95.6481 26.4349 96.6666 28.9987 96.6666H86.9987C88.2806 96.6666 89.51 96.1574 90.4164 95.2509C91.3228 94.3445 91.832 93.1151 91.832 91.8333V77.3333" stroke="#00B598" stroke-width="2" stroke-linecap="round" stroke-linejoin="round"/>
<path id="Vector_2" d="M96.668 58V77.3333H77.3346C74.7709 77.3333 72.3121 76.3149 70.4993 74.502C68.6864 72.6892 67.668 70.2304 67.668 67.6667C67.668 65.1029 68.6864 62.6442 70.4993 60.8313C72.3121 59.0185 74.7709 58 77.3346 58H96.668Z" stroke="#00B598" stroke-width="2" stroke-linecap="round" stroke-linejoin="round"/>
</g>
<defs>
<clipPath id="clip0_26_82338">
<rect width="116" height="116" fill="white"/>
</clipPath>
</defs>
</svg>
