<svg width="32" height="32" viewBox="0 0 32 32" fill="none" xmlns="http://www.w3.org/2000/svg">
<g id="wallet 3" clip-path="url(#clip0_23_42024)">
<path id="Vector" d="M22.6683 10.6673V6.66732C22.6683 6.3137 22.5278 5.97456 22.2778 5.72451C22.0277 5.47446 21.6886 5.33398 21.335 5.33398H8.00163C7.29438 5.33398 6.61611 5.61494 6.11601 6.11503C5.61591 6.61513 5.33496 7.29341 5.33496 8.00065M5.33496 8.00065C5.33496 8.7079 5.61591 9.38617 6.11601 9.88627C6.61611 10.3864 7.29438 10.6673 8.00163 10.6673H24.0016C24.3553 10.6673 24.6944 10.8078 24.9444 11.0578C25.1945 11.3079 25.335 11.647 25.335 12.0007V16.0007M5.33496 8.00065V24.0007C5.33496 24.7079 5.61591 25.3862 6.11601 25.8863C6.61611 26.3864 7.29438 26.6673 8.00163 26.6673H24.0016C24.3553 26.6673 24.6944 26.5269 24.9444 26.2768C25.1945 26.0268 25.335 25.6876 25.335 25.334V21.334" stroke="#00B598" stroke-linecap="round" stroke-linejoin="round"/>
<path id="Vector_2" d="M26.665 16V21.3333H21.3317C20.6245 21.3333 19.9462 21.0524 19.4461 20.5523C18.946 20.0522 18.665 19.3739 18.665 18.6667C18.665 17.9594 18.946 17.2811 19.4461 16.781C19.9462 16.281 20.6245 16 21.3317 16H26.665Z" stroke="#00B598" stroke-linecap="round" stroke-linejoin="round"/>
</g>
<defs>
<clipPath id="clip0_23_42024">
<rect width="32" height="32" fill="white"/>
</clipPath>
</defs>
</svg>
