<svg width="32" height="32" viewBox="0 0 32 32" fill="none" xmlns="http://www.w3.org/2000/svg">
<g clip-path="url(#clip0_1_48039)">
<path d="M8 28L28 8L24 4L4 24L8 28Z" stroke="#6F40DD" stroke-linecap="round" stroke-linejoin="round"/>
<path d="M20 8L24 12" stroke="#6F40DD" stroke-linecap="round" stroke-linejoin="round"/>
<path d="M12.0026 4C12.0026 4.70724 12.2836 5.38552 12.7837 5.88562C13.2838 6.38572 13.962 6.66667 14.6693 6.66667C13.962 6.66667 13.2838 6.94762 12.7837 7.44772C12.2836 7.94781 12.0026 8.62609 12.0026 9.33333C12.0026 8.62609 11.7217 7.94781 11.2216 7.44772C10.7215 6.94762 10.0432 6.66667 9.33594 6.66667C10.0432 6.66667 10.7215 6.38572 11.2216 5.88562C11.7217 5.38552 12.0026 4.70724 12.0026 4Z" stroke="#6F40DD" stroke-linecap="round" stroke-linejoin="round"/>
<path d="M25.3307 17.334C25.3307 18.0412 25.6117 18.7195 26.1118 19.2196C26.6119 19.7197 27.2902 20.0007 27.9974 20.0007C27.2902 20.0007 26.6119 20.2816 26.1118 20.7817C25.6117 21.2818 25.3307 21.9601 25.3307 22.6673C25.3307 21.9601 25.0498 21.2818 24.5497 20.7817C24.0496 20.2816 23.3713 20.0007 22.6641 20.0007C23.3713 20.0007 24.0496 19.7197 24.5497 19.2196C25.0498 18.7195 25.3307 18.0412 25.3307 17.334Z" stroke="#6F40DD" stroke-linecap="round" stroke-linejoin="round"/>
</g>
<defs>
<clipPath id="clip0_1_48039">
<rect width="32" height="32" fill="white"/>
</clipPath>
</defs>
</svg>
