<svg width="32" height="32" viewBox="0 0 32 32" fill="none" xmlns="http://www.w3.org/2000/svg">
<g id="woman 2" clip-path="url(#clip0_1_47975)">
<path id="Vector" d="M13.332 21.334V28.0007" stroke="#BBBBBE" stroke-width="2" stroke-linecap="round" stroke-linejoin="round"/>
<path id="Vector_2" d="M18.668 21.334V28.0007" stroke="#BBBBBE" stroke-width="2" stroke-linecap="round" stroke-linejoin="round"/>
<path id="Vector_3" d="M10.668 21.3333H21.3346L18.668 12H13.3346L10.668 21.3333Z" stroke="#BBBBBE" stroke-width="2" stroke-linecap="round" stroke-linejoin="round"/>
<path id="Vector_4" d="M6.66797 14.6667C8.89064 12.8893 11.112 12 13.3346 12" stroke="#BBBBBE" stroke-width="2" stroke-linecap="round" stroke-linejoin="round"/>
<path id="Vector_5" d="M25.3346 14.6667C23.112 12.8893 20.8906 12 18.668 12" stroke="#BBBBBE" stroke-width="2" stroke-linecap="round" stroke-linejoin="round"/>
<path id="Vector_6" d="M13.332 5.33268C13.332 6.03993 13.613 6.7182 14.1131 7.2183C14.6132 7.7184 15.2915 7.99935 15.9987 7.99935C16.7059 7.99935 17.3842 7.7184 17.8843 7.2183C18.3844 6.7182 18.6654 6.03993 18.6654 5.33268C18.6654 4.62544 18.3844 3.94716 17.8843 3.44706C17.3842 2.94697 16.7059 2.66602 15.9987 2.66602C15.2915 2.66602 14.6132 2.94697 14.1131 3.44706C13.613 3.94716 13.332 4.62544 13.332 5.33268Z" stroke="#BBBBBE" stroke-width="2" stroke-linecap="round" stroke-linejoin="round"/>
</g>
<defs>
<clipPath id="clip0_1_47975">
<rect width="32" height="32" fill="white"/>
</clipPath>
</defs>
</svg>
