<svg width="33" height="32" viewBox="0 0 33 32" fill="none" xmlns="http://www.w3.org/2000/svg">
<g id="icons8-youtube 1">
<path id="Vector" d="M29.187 22.6C28.9204 24 27.787 25.0667 26.387 25.2667C24.187 25.6 20.5204 26 16.387 26C12.3204 26 8.65371 25.6 6.38704 25.2667C4.98704 25.0667 3.85371 24 3.58704 22.6C3.32038 21.0667 3.05371 18.8 3.05371 16C3.05371 13.2 3.32038 10.9333 3.58704 9.4C3.85371 8 4.98704 6.93333 6.38704 6.73333C8.58704 6.4 12.2537 6 16.387 6C20.5204 6 24.1204 6.4 26.387 6.73333C27.787 6.93333 28.9204 8 29.187 9.4C29.4537 10.9333 29.787 13.2 29.787 16C29.7204 18.8 29.4537 21.0667 29.187 22.6Z" fill="#FF3D00"/>
<path id="Vector_2" d="M13.7178 20.6673V11.334L21.7178 16.0007L13.7178 20.6673Z" fill="white"/>
</g>
</svg>
